<svg width="73" height="20" viewBox="0 0 73 20" fill="none" xmlns="http://www.w3.org/2000/svg">
<path fill-rule="evenodd" clip-rule="evenodd" d="M26.4893 6.03469L26.5504 7.12638C27.2472 6.28203 28.1621 5.85986 29.2945 5.85986C31.2569 5.85986 32.2557 6.98632 32.2904 9.23924V15.4815H30.1746V9.36142C30.1746 8.76193 30.0455 8.3184 29.7872 8.02983C29.5289 7.74176 29.1062 7.59773 28.5197 7.59773C27.6659 7.59773 27.0296 7.98513 26.6124 8.75895V15.4815H24.4956V6.03469H26.4903H26.4893ZM38.5972 15.6563C37.2562 15.6563 36.1685 15.2331 35.3356 14.3863C34.5021 13.5395 34.0854 12.4115 34.0854 11.0029V10.7412C34.0854 9.7985 34.2667 8.95564 34.6298 8.2136C34.9924 7.47157 35.5024 6.89394 36.1585 6.48021C36.8147 6.06747 37.5463 5.86085 38.3539 5.86085C39.6368 5.86085 40.6286 6.2711 41.328 7.09161C42.0283 7.91262 42.3779 9.07335 42.3779 10.5753V11.4311H36.2191C36.2837 12.2109 36.543 12.8277 36.9989 13.2817C37.4549 13.7356 38.0285 13.9626 38.7194 13.9626C39.6889 13.9626 40.4786 13.5703 41.0886 12.784L42.2294 13.8757C41.8519 14.4399 41.3483 14.878 40.7185 15.1894C40.0882 15.5008 39.3815 15.6563 38.5977 15.6563H38.5972ZM38.3449 7.56346C37.7638 7.56346 37.2954 7.76709 36.9383 8.17437C36.5807 8.58164 36.3532 9.14934 36.2544 9.87697H40.2874V9.71953C40.2407 9.00928 40.052 8.47287 39.7212 8.10881C39.3899 7.74524 38.9315 7.56346 38.3449 7.56346V7.56346ZM46.6717 3.73905V6.03518H48.3356V7.60667H46.6717V12.8799C46.6717 13.2405 46.7432 13.5007 46.8853 13.6611C47.0273 13.8211 47.2816 13.901 47.6477 13.901C47.8969 13.9003 48.1452 13.871 48.3877 13.8136V15.4551C47.9059 15.5892 47.4415 15.6558 46.994 15.6558C45.3684 15.6558 44.5554 14.7568 44.5554 12.9583V7.60617H43.0037V6.03469H44.5544V3.73855H46.6707L46.6717 3.73905ZM52.2032 15.482H50.0863V2.07171H52.2032V15.482ZM56.7587 15.482H54.6418V6.03518H56.7587V15.482ZM54.5112 3.5816C54.5112 3.25628 54.614 2.98559 54.8202 2.77004C55.0268 2.55498 55.3213 2.4472 55.7042 2.4472C56.0877 2.4472 56.3837 2.55498 56.5933 2.77004C56.8019 2.98559 56.9062 3.25628 56.9062 3.5821C56.9062 3.90196 56.8019 4.16818 56.5933 4.38076C56.3837 4.59333 56.0877 4.69962 55.7042 4.69962C55.3213 4.69962 55.0268 4.59333 54.8202 4.38076C54.614 4.16868 54.5112 3.90196 54.5112 3.5821V3.5816ZM59.8073 15.482V7.60617H58.3699V6.03469H59.8073V5.17047C59.8073 4.12248 60.0973 3.3139 60.678 2.74322C61.2591 2.17303 62.0716 1.88794 63.1166 1.88794C63.4886 1.88794 63.8835 1.94009 64.3017 2.04489L64.2495 3.70379C63.9824 3.65421 63.7111 3.63092 63.4395 3.63425C62.4287 3.63425 61.9236 4.15477 61.9236 5.19679V6.03469H63.8398V7.60617H61.9236V15.4815H59.8073V15.482ZM68.6829 12.4438L70.599 6.03518H72.855L69.11 16.9139C68.5349 18.5027 67.5594 19.2974 66.1831 19.2974C65.8752 19.2974 65.5354 19.2448 65.1639 19.14V17.4985L65.5647 17.5248C66.0987 17.5248 66.501 17.4274 66.7712 17.2322C67.0409 17.0375 67.2544 16.7102 67.4114 16.2503L67.7158 15.4383L64.406 6.03518H66.6882L68.6829 12.4438V12.4438Z" fill="black"/>
<path d="M14.5237 6.94052L14.5164 6.93739C14.5122 6.93583 14.508 6.93426 14.5044 6.93061C14.4984 6.92418 14.4939 6.91647 14.4914 6.90806C14.4889 6.89965 14.4883 6.89077 14.4898 6.8821L14.893 4.41699L16.7838 6.30834L14.8173 7.14499C14.8119 7.1472 14.806 7.14826 14.8001 7.14812H14.7923C14.7897 7.14656 14.7871 7.14447 14.7819 7.13925C14.7087 7.05777 14.6212 6.99041 14.5237 6.94052V6.94052ZM17.2663 6.7903L19.288 8.81204C19.7079 9.23246 19.9181 9.44214 19.9948 9.68521C20.0063 9.7212 20.0156 9.75719 20.0229 9.79423L15.1913 7.74797C15.1887 7.7469 15.1861 7.74585 15.1835 7.74484C15.1642 7.73701 15.1418 7.72815 15.1418 7.70833C15.1418 7.6885 15.1647 7.67912 15.184 7.67129L15.1903 7.66868L17.2663 6.7903V6.7903ZM19.9405 10.4431C19.8362 10.6392 19.6328 10.8427 19.2885 11.1874L17.0091 13.4663L14.061 12.8524L14.0453 12.8493C14.0193 12.8451 13.9916 12.8404 13.9916 12.8169C13.9804 12.6953 13.9443 12.5773 13.8855 12.4703C13.8268 12.3632 13.7466 12.2694 13.65 12.1947C13.638 12.1827 13.6411 12.1639 13.6448 12.1467C13.6448 12.1441 13.6448 12.1415 13.6458 12.1394L14.2003 8.73537L14.2023 8.72389C14.2055 8.69781 14.2102 8.66756 14.2336 8.66756C14.3525 8.65278 14.4672 8.6145 14.571 8.55494C14.6749 8.49539 14.7659 8.41576 14.8387 8.32069C14.8434 8.31547 14.8465 8.30974 14.8528 8.30661C14.8695 8.29878 14.8893 8.30661 14.9065 8.31391L19.94 10.4431H19.9405ZM16.4849 13.9905L12.7366 17.7388L13.3782 13.7955L13.3793 13.7902C13.3798 13.785 13.3808 13.7798 13.3824 13.7751C13.3876 13.7626 13.4012 13.7574 13.4142 13.7522L13.4205 13.7496C13.5609 13.6896 13.6852 13.5972 13.783 13.4799C13.7955 13.4653 13.8106 13.4512 13.8299 13.4486C13.8349 13.4478 13.84 13.4478 13.845 13.4486L16.4844 13.9911L16.4849 13.9905ZM11.9433 18.5322L11.5208 18.9547L6.84979 12.204C6.8481 12.2016 6.84636 12.1991 6.84458 12.1967C6.83727 12.1868 6.82945 12.1769 6.83101 12.1654C6.83101 12.1571 6.83675 12.1498 6.84249 12.1435L6.84771 12.1368C6.86179 12.1159 6.87379 12.095 6.88683 12.0726L6.89726 12.0543L6.89882 12.0528C6.90613 12.0403 6.91291 12.0283 6.92542 12.0215C6.93638 12.0163 6.9515 12.0184 6.9635 12.021L12.1384 13.0882C12.1528 13.0904 12.1665 13.0963 12.178 13.1054C12.1848 13.1122 12.1863 13.1195 12.1879 13.1278C12.224 13.2644 12.2912 13.3908 12.3842 13.4971C12.4772 13.6034 12.5935 13.6868 12.7241 13.7407C12.7387 13.748 12.7325 13.7642 12.7257 13.7814C12.7223 13.7889 12.7197 13.7968 12.7179 13.8049C12.6527 14.2013 12.0935 17.6115 11.9433 18.5322ZM11.0607 19.4142C10.7493 19.7225 10.5657 19.8857 10.3581 19.9515C10.1534 20.0162 9.93375 20.0162 9.72906 19.9515C9.48599 19.8743 9.27578 19.6646 8.85589 19.2442L4.16509 14.5534L5.39034 12.6531C5.39608 12.6438 5.40181 12.6354 5.4112 12.6286C5.42424 12.6192 5.44302 12.6234 5.45867 12.6286C5.7399 12.7135 6.04185 12.6982 6.31306 12.5853C6.32714 12.5801 6.34123 12.5765 6.35218 12.5864C6.35766 12.5914 6.36256 12.597 6.36678 12.6031L11.0607 19.4142V19.4142ZM3.71233 14.1011L2.63678 13.0251L4.7618 12.1185C4.76724 12.1161 4.77309 12.1149 4.77902 12.1149C4.79675 12.1149 4.80718 12.1326 4.81657 12.1488C4.83793 12.1816 4.86055 12.2136 4.88438 12.2447L4.89116 12.2531C4.89742 12.2619 4.89325 12.2708 4.88699 12.2792L3.71338 14.1011H3.71233ZM2.16003 12.5488L0.798642 11.1874C0.567049 10.9558 0.399092 10.7879 0.282253 10.6434L4.42172 11.502C4.42692 11.5029 4.43213 11.5038 4.43736 11.5046C4.46292 11.5087 4.49109 11.5134 4.49109 11.5374C4.49109 11.5635 4.46032 11.5755 4.43424 11.5854L4.42224 11.5906L2.16003 12.5488V12.5488ZM0.0454435 9.94341C0.050161 9.85571 0.0659339 9.76896 0.092388 9.68521C0.169586 9.44214 0.379271 9.23246 0.799686 8.81204L2.54185 7.06988C3.34399 8.23404 4.14831 9.3967 4.9548 10.5579C4.96888 10.5766 4.98453 10.5975 4.96836 10.6131C4.89221 10.6971 4.81605 10.7889 4.76233 10.8886C4.7565 10.9014 4.74753 10.9125 4.73625 10.9209C4.72946 10.9251 4.72216 10.9235 4.71434 10.9219H4.71329L0.0449219 9.94289L0.0454435 9.94341ZM3.00816 6.60356L5.35018 4.26103C5.57081 4.35753 6.37252 4.69605 7.08869 4.99858C7.63116 5.22809 8.12564 5.43673 8.28108 5.50454C8.29673 5.5108 8.31081 5.51706 8.31759 5.53271C8.32176 5.5421 8.31968 5.55409 8.31759 5.564C8.28051 5.7331 8.28603 5.90875 8.33364 6.07518C8.38126 6.24162 8.46949 6.39361 8.59039 6.5175C8.60604 6.53315 8.59039 6.55558 8.57683 6.57488L8.56953 6.58583L6.191 10.2699C6.18474 10.2804 6.17901 10.2892 6.16857 10.296C6.15606 10.3038 6.13832 10.3002 6.12372 10.2965C6.03121 10.2723 5.93611 10.2593 5.84048 10.2579C5.75494 10.2579 5.6621 10.2736 5.56821 10.2908H5.56768C5.55725 10.2924 5.54786 10.2944 5.53952 10.2882C5.5303 10.2807 5.52237 10.2717 5.51605 10.2616L3.00816 6.60356V6.60356ZM5.82379 3.78794L8.85641 0.75532C9.2763 0.335428 9.48651 0.125221 9.72958 0.0485446C9.93427 -0.0161815 10.1539 -0.0161815 10.3586 0.0485446C10.6017 0.125221 10.8119 0.335428 11.2318 0.75532L11.889 1.41254L9.73166 4.75239C9.72633 4.76211 9.71905 4.77063 9.71028 4.77742C9.69724 4.78629 9.67898 4.78264 9.66333 4.77742C9.49328 4.72582 9.31322 4.71642 9.13872 4.75005C8.96422 4.78368 8.80055 4.85931 8.66185 4.97042C8.64777 4.98502 8.6269 4.97668 8.60917 4.96885C8.3275 4.84627 6.13676 3.92042 5.82327 3.78742L5.82379 3.78794ZM12.347 1.87051L14.3385 3.862L13.8586 6.83411V6.84194C13.8582 6.84871 13.8568 6.85539 13.8544 6.86176C13.8492 6.87219 13.8388 6.87428 13.8284 6.87741C13.7258 6.90849 13.6291 6.95662 13.5425 7.01981C13.5388 7.02246 13.5353 7.02543 13.5321 7.02867C13.5263 7.03493 13.5206 7.04067 13.5112 7.04171C13.5036 7.04195 13.496 7.04071 13.4888 7.03806L10.4541 5.74865L10.4484 5.74604C10.4291 5.73822 10.4061 5.72883 10.4061 5.70901C10.3883 5.5399 10.333 5.37687 10.2444 5.23174C10.2298 5.20775 10.2136 5.18271 10.2261 5.15819L12.347 1.87051V1.87051ZM10.295 6.35893L13.1398 7.56384C13.1555 7.57114 13.1727 7.57792 13.1795 7.59409C13.1822 7.60382 13.1822 7.6141 13.1795 7.62383C13.1711 7.66555 13.1638 7.71302 13.1638 7.76101V7.84081C13.1638 7.86063 13.1435 7.86898 13.1247 7.8768L13.119 7.87889C12.6683 8.07136 6.79189 10.5772 6.78303 10.5772C6.77416 10.5772 6.76477 10.5772 6.7559 10.5683C6.74025 10.5526 6.7559 10.5307 6.76999 10.5109C6.77248 10.5075 6.77491 10.504 6.77729 10.5005L9.11513 6.88054L9.1193 6.87428C9.13286 6.85237 9.14851 6.82785 9.17355 6.82785L9.19702 6.83151C9.25022 6.83881 9.29717 6.84559 9.34463 6.84559C9.69932 6.84559 10.0279 6.67294 10.2261 6.37771C10.2309 6.36983 10.2369 6.36278 10.2439 6.35684C10.258 6.34641 10.2788 6.35163 10.295 6.35893V6.35893ZM7.03705 11.1499L13.4424 8.41823C13.4424 8.41823 13.4518 8.41823 13.4606 8.4271C13.4956 8.46205 13.5253 8.48552 13.554 8.50743L13.5681 8.51629C13.5811 8.5236 13.5942 8.53194 13.5952 8.5455C13.5952 8.55072 13.5952 8.55385 13.5942 8.55854L13.0459 11.9297L13.0439 11.9432C13.0402 11.9693 13.0366 11.9991 13.012 11.9991C12.8657 12.0089 12.7241 12.0543 12.5993 12.1313C12.4745 12.2083 12.3703 12.3145 12.2959 12.4409L12.2933 12.445C12.286 12.457 12.2792 12.4685 12.2672 12.4748C12.2562 12.48 12.2422 12.4779 12.2307 12.4753L7.12259 11.4216C7.11738 11.4206 7.04331 11.1509 7.03757 11.1504L7.03705 11.1499Z" fill="black"/>
</svg>
