<svg width="73" height="21" viewBox="0 0 73 21" fill="none" xmlns="http://www.w3.org/2000/svg">
<path fill-rule="evenodd" clip-rule="evenodd" d="M26.4888 6.32192L26.5499 7.41361C27.2467 6.56926 28.1616 6.14709 29.294 6.14709C31.2564 6.14709 32.2552 7.27355 32.2899 9.52647V15.7687H30.1741V9.64865C30.1741 9.04917 30.045 8.60563 29.7867 8.31707C29.5284 8.02899 29.1058 7.88496 28.5192 7.88496C27.6654 7.88496 27.0292 8.27236 26.6119 9.04619V15.7687H24.4951V6.32192H26.4898H26.4888ZM38.5967 15.9435C37.2557 15.9435 36.168 15.5204 35.3351 14.6735C34.5016 13.8267 34.0849 12.6987 34.0849 11.2902V11.0284C34.0849 10.0857 34.2662 9.24287 34.6293 8.50084C34.9919 7.7588 35.5019 7.18117 36.1581 6.76744C36.8142 6.3547 37.5458 6.14808 38.3534 6.14808C39.6363 6.14808 40.6281 6.55834 41.3275 7.37884C42.0278 8.19985 42.3774 9.36058 42.3774 10.8625V11.7183H36.2187C36.2832 12.4981 36.5425 13.115 36.9984 13.5689C37.4544 14.0229 38.028 14.2499 38.7189 14.2499C39.6884 14.2499 40.4781 13.8575 41.0881 13.0712L42.2289 14.1629C41.8514 14.7272 41.3478 15.1652 40.718 15.4766C40.0878 15.7881 39.381 15.9435 38.5972 15.9435H38.5967ZM38.3444 7.85069C37.7633 7.85069 37.2949 8.05432 36.9378 8.4616C36.5802 8.86887 36.3528 9.43657 36.2539 10.1642H40.2869V10.0068C40.2402 9.29651 40.0515 8.7601 39.7207 8.39604C39.3894 8.03247 38.931 7.85069 38.3444 7.85069V7.85069ZM46.6712 4.02628V6.32241H48.3351V7.8939H46.6712V13.1671C46.6712 13.5277 46.7427 13.788 46.8848 13.9484C47.0268 14.1083 47.2811 14.1883 47.6472 14.1883C47.8964 14.1876 48.1447 14.1582 48.3872 14.1009V15.7424C47.9054 15.8765 47.441 15.943 46.9935 15.943C45.3679 15.943 44.5549 15.044 44.5549 13.2456V7.8934H43.0032V6.32192H44.5539V4.02579H46.6702L46.6712 4.02628ZM52.2027 15.7692H50.0858V2.35894H52.2027V15.7692ZM56.7582 15.7692H54.6413V6.32241H56.7582V15.7692ZM54.5107 3.86884C54.5107 3.54351 54.6135 3.27282 54.8197 3.05727C55.0263 2.84221 55.3208 2.73443 55.7037 2.73443C56.0872 2.73443 56.3832 2.84221 56.5928 3.05727C56.8014 3.27282 56.9057 3.54351 56.9057 3.86933C56.9057 4.18919 56.8014 4.45541 56.5928 4.66799C56.3832 4.88056 56.0872 4.98685 55.7037 4.98685C55.3208 4.98685 55.0263 4.88056 54.8197 4.66799C54.6135 4.45591 54.5107 4.18919 54.5107 3.86933V3.86884ZM59.8068 15.7692V7.8934H58.3694V6.32192H59.8068V5.4577C59.8068 4.40972 60.0968 3.60113 60.6774 3.03045C61.2586 2.46026 62.0711 2.17517 63.1161 2.17517C63.4881 2.17517 63.883 2.22732 64.3012 2.33212L64.249 3.99102C63.9819 3.94144 63.7106 3.91815 63.439 3.92148C62.4282 3.92148 61.9231 4.442 61.9231 5.48403V6.32192H63.8393V7.8934H61.9231V15.7687H59.8068V15.7692ZM68.6824 12.731L70.5985 6.32241H72.8544L69.1095 17.2011C68.5344 18.79 67.5589 19.5847 66.1826 19.5847C65.8747 19.5847 65.5349 19.532 65.1634 19.4272V17.7857L65.5642 17.812C66.0982 17.812 66.5005 17.7147 66.7707 17.5195C67.0404 17.3248 67.2539 16.9975 67.4109 16.5375L67.7153 15.7255L64.4055 6.32241H66.6877L68.6824 12.731V12.731Z" fill="white"/>
<path d="M14.5237 7.22824L14.5164 7.22511C14.5122 7.22355 14.508 7.22198 14.5044 7.21833C14.4984 7.2119 14.4939 7.20419 14.4914 7.19578C14.4889 7.18737 14.4883 7.17849 14.4898 7.16982L14.893 4.70471L16.7838 6.59606L14.8173 7.43271C14.8119 7.43491 14.806 7.43598 14.8001 7.43584H14.7923C14.7897 7.43428 14.7871 7.43219 14.7819 7.42697C14.7087 7.34549 14.6212 7.27813 14.5237 7.22824V7.22824ZM17.2663 7.07802L19.288 9.09976C19.7079 9.52018 19.9181 9.72986 19.9948 9.97293C20.0063 10.0089 20.0156 10.0449 20.0229 10.0819L15.1913 8.03569C15.1887 8.03461 15.1861 8.03357 15.1835 8.03256C15.1642 8.02473 15.1418 8.01587 15.1418 7.99605C15.1418 7.97622 15.1647 7.96684 15.184 7.95901L15.1903 7.9564L17.2663 7.07802V7.07802ZM19.9405 10.7308C19.8362 10.9269 19.6328 11.1304 19.2885 11.4752L17.0091 13.7541L14.061 13.1401L14.0453 13.137C14.0193 13.1328 13.9916 13.1281 13.9916 13.1047C13.9804 12.983 13.9443 12.865 13.8855 12.758C13.8268 12.6509 13.7466 12.5571 13.65 12.4824C13.638 12.4704 13.6411 12.4516 13.6448 12.4344C13.6448 12.4318 13.6448 12.4292 13.6458 12.4271L14.2003 9.02309L14.2023 9.01161C14.2055 8.98553 14.2102 8.95528 14.2336 8.95528C14.3525 8.9405 14.4672 8.90222 14.571 8.84266C14.6749 8.78311 14.7659 8.70348 14.8387 8.60841C14.8434 8.60319 14.8465 8.59746 14.8528 8.59433C14.8695 8.5865 14.8893 8.59433 14.9065 8.60163L19.94 10.7308H19.9405ZM16.4849 14.2783L12.7366 18.0265L13.3782 14.0832L13.3793 14.078C13.3798 14.0728 13.3808 14.0675 13.3824 14.0628C13.3876 14.0503 13.4012 14.0451 13.4142 14.0399L13.4205 14.0373C13.5609 13.9773 13.6852 13.8849 13.783 13.7676C13.7955 13.753 13.8106 13.7389 13.8299 13.7363C13.8349 13.7355 13.84 13.7355 13.845 13.7363L16.4844 14.2788L16.4849 14.2783ZM11.9433 18.8199L11.5208 19.2424L6.84979 12.4918C6.8481 12.4893 6.84636 12.4869 6.84458 12.4845C6.83727 12.4746 6.82945 12.4646 6.83101 12.4532C6.83101 12.4448 6.83675 12.4375 6.84249 12.4313L6.84771 12.4245C6.86179 12.4036 6.87379 12.3828 6.88683 12.3603L6.89726 12.3421L6.89882 12.3405C6.90613 12.328 6.91291 12.316 6.92542 12.3092C6.93638 12.304 6.9515 12.3061 6.9635 12.3087L12.1384 13.3759C12.1528 13.3781 12.1665 13.3841 12.178 13.3931C12.1848 13.3999 12.1863 13.4072 12.1879 13.4155C12.224 13.5521 12.2912 13.6785 12.3842 13.7848C12.4772 13.8911 12.5935 13.9745 12.7241 14.0284C12.7387 14.0357 12.7325 14.0519 12.7257 14.0691C12.7223 14.0766 12.7197 14.0845 12.7179 14.0926C12.6527 14.489 12.0935 17.8993 11.9433 18.8199ZM11.0607 19.7019C10.7493 20.0102 10.5657 20.1735 10.3581 20.2392C10.1534 20.3039 9.93375 20.3039 9.72906 20.2392C9.48599 20.162 9.27578 19.9523 8.85589 19.5319L4.16509 14.8411L5.39034 12.9409C5.39608 12.9315 5.40181 12.9231 5.4112 12.9164C5.42424 12.907 5.44302 12.9111 5.45867 12.9164C5.7399 13.0012 6.04185 12.9859 6.31306 12.8731C6.32714 12.8678 6.34123 12.8642 6.35218 12.8741C6.35766 12.8791 6.36256 12.8847 6.36678 12.8908L11.0607 19.7019V19.7019ZM3.71233 14.3888L2.63678 13.3128L4.7618 12.4062C4.76724 12.4039 4.77309 12.4026 4.77902 12.4026C4.79675 12.4026 4.80718 12.4203 4.81657 12.4365C4.83793 12.4693 4.86055 12.5013 4.88438 12.5325L4.89116 12.5408C4.89742 12.5497 4.89325 12.5585 4.88699 12.5669L3.71338 14.3888H3.71233ZM2.16003 12.8365L0.798642 11.4752C0.567049 11.2436 0.399092 11.0756 0.282253 10.9311L4.42172 11.7897C4.42692 11.7906 4.43213 11.7915 4.43736 11.7923C4.46292 11.7965 4.49109 11.8012 4.49109 11.8252C4.49109 11.8512 4.46032 11.8632 4.43424 11.8731L4.42224 11.8784L2.16003 12.8365V12.8365ZM0.0454435 10.2311C0.050161 10.1434 0.0659339 10.0567 0.092388 9.97293C0.169586 9.72986 0.379271 9.52018 0.799686 9.09976L2.54185 7.3576C3.34399 8.52176 4.14831 9.68442 4.9548 10.8456C4.96888 10.8644 4.98453 10.8852 4.96836 10.9009C4.89221 10.9848 4.81605 11.0766 4.76233 11.1763C4.7565 11.1891 4.74753 11.2002 4.73625 11.2086C4.72946 11.2128 4.72216 11.2112 4.71434 11.2097H4.71329L0.0449219 10.2306L0.0454435 10.2311ZM3.00816 6.89128L5.35018 4.54875C5.57081 4.64525 6.37252 4.98377 7.08869 5.2863C7.63116 5.51581 8.12564 5.72445 8.28108 5.79226C8.29673 5.79852 8.31081 5.80478 8.31759 5.82043C8.32176 5.82982 8.31968 5.84181 8.31759 5.85172C8.28051 6.02082 8.28603 6.19647 8.33364 6.3629C8.38126 6.52934 8.46949 6.68133 8.59039 6.80522C8.60604 6.82087 8.59039 6.8433 8.57683 6.8626L8.56953 6.87355L6.191 10.5577C6.18474 10.5681 6.17901 10.577 6.16857 10.5837C6.15606 10.5916 6.13832 10.5879 6.12372 10.5843C6.03121 10.56 5.93611 10.5471 5.84048 10.5457C5.75494 10.5457 5.6621 10.5613 5.56821 10.5785H5.56768C5.55725 10.5801 5.54786 10.5822 5.53952 10.5759C5.5303 10.5684 5.52237 10.5594 5.51605 10.5493L3.00816 6.89128V6.89128ZM5.82379 4.07566L8.85641 1.04304C9.2763 0.623148 9.48651 0.41294 9.72958 0.336264C9.93427 0.271538 10.1539 0.271538 10.3586 0.336264C10.6017 0.41294 10.8119 0.623148 11.2318 1.04304L11.889 1.70026L9.73166 5.0401C9.72633 5.04983 9.71905 5.05835 9.71028 5.06514C9.69724 5.07401 9.67898 5.07036 9.66333 5.06514C9.49328 5.01354 9.31322 5.00414 9.13872 5.03777C8.96422 5.0714 8.80055 5.14703 8.66185 5.25814C8.64777 5.27274 8.6269 5.2644 8.60917 5.25657C8.3275 5.13399 6.13676 4.20814 5.82327 4.07513L5.82379 4.07566ZM12.347 2.15823L14.3385 4.14972L13.8586 7.12183V7.12966C13.8582 7.13643 13.8568 7.14311 13.8544 7.14948C13.8492 7.15991 13.8388 7.162 13.8284 7.16513C13.7258 7.19621 13.6291 7.24434 13.5425 7.30753C13.5388 7.31018 13.5353 7.31315 13.5321 7.31639C13.5263 7.32265 13.5206 7.32839 13.5112 7.32943C13.5036 7.32967 13.496 7.32843 13.4888 7.32578L10.4541 6.03637L10.4484 6.03376C10.4291 6.02594 10.4061 6.01655 10.4061 5.99673C10.3883 5.82762 10.333 5.66459 10.2444 5.51946C10.2298 5.49547 10.2136 5.47043 10.2261 5.44591L12.347 2.15823V2.15823ZM10.295 6.64665L13.1398 7.85156C13.1555 7.85886 13.1727 7.86564 13.1795 7.88181C13.1822 7.89154 13.1822 7.90182 13.1795 7.91154C13.1711 7.95327 13.1638 8.00074 13.1638 8.04873V8.12853C13.1638 8.14835 13.1435 8.1567 13.1247 8.16452L13.119 8.16661C12.6683 8.35908 6.79189 10.8649 6.78303 10.8649C6.77416 10.8649 6.76477 10.8649 6.7559 10.856C6.74025 10.8404 6.7559 10.8185 6.76999 10.7986C6.77248 10.7952 6.77491 10.7917 6.77729 10.7882L9.11513 7.16826L9.1193 7.162C9.13286 7.14009 9.14851 7.11557 9.17355 7.11557L9.19702 7.11923C9.25022 7.12653 9.29717 7.13331 9.34463 7.13331C9.69932 7.13331 10.0279 6.96066 10.2261 6.66543C10.2309 6.65754 10.2369 6.6505 10.2439 6.64456C10.258 6.63413 10.2788 6.63935 10.295 6.64665V6.64665ZM7.03705 11.4376L13.4424 8.70595C13.4424 8.70595 13.4518 8.70595 13.4606 8.71482C13.4956 8.74977 13.5253 8.77324 13.554 8.79515L13.5681 8.80401C13.5811 8.81132 13.5942 8.81966 13.5952 8.83322C13.5952 8.83844 13.5952 8.84157 13.5942 8.84626L13.0459 12.2174L13.0439 12.231C13.0402 12.257 13.0366 12.2868 13.012 12.2868C12.8657 12.2966 12.7241 12.342 12.5993 12.419C12.4745 12.496 12.3703 12.6023 12.2959 12.7286L12.2933 12.7327C12.286 12.7447 12.2792 12.7562 12.2672 12.7625C12.2562 12.7677 12.2422 12.7656 12.2307 12.763L7.12259 11.7094C7.11738 11.7083 7.04331 11.4386 7.03757 11.4381L7.03705 11.4376Z" fill="white"/>
</svg>
