<svg width="20" height="20" viewBox="0 0 20 20" fill="none" xmlns="http://www.w3.org/2000/svg">
<path d="M14.4787 6.94052L14.4714 6.93739C14.4673 6.93583 14.4631 6.93426 14.4594 6.93061C14.4535 6.92418 14.449 6.91647 14.4465 6.90806C14.444 6.89965 14.4434 6.89077 14.4448 6.8821L14.848 4.41699L16.7389 6.30834L14.7724 7.14499C14.7669 7.1472 14.7611 7.14826 14.7552 7.14812H14.7474C14.7448 7.14656 14.7421 7.14447 14.7369 7.13925C14.6637 7.05777 14.5762 6.99041 14.4787 6.94052V6.94052ZM17.2213 6.7903L19.2431 8.81204C19.663 9.23246 19.8732 9.44214 19.9499 9.68521C19.9613 9.7212 19.9707 9.75719 19.978 9.79423L15.1464 7.74797C15.1438 7.7469 15.1412 7.74585 15.1386 7.74484C15.1193 7.73701 15.0968 7.72815 15.0968 7.70833C15.0968 7.6885 15.1198 7.67912 15.1391 7.67129L15.1453 7.66868L17.2213 6.7903V6.7903ZM19.8956 10.4431C19.7913 10.6392 19.5879 10.8427 19.2436 11.1874L16.9642 13.4663L14.0161 12.8524L14.0004 12.8493C13.9743 12.8451 13.9467 12.8404 13.9467 12.8169C13.9355 12.6953 13.8994 12.5773 13.8406 12.4703C13.7818 12.3632 13.7016 12.2694 13.605 12.1947C13.593 12.1827 13.5962 12.1639 13.5998 12.1467C13.5998 12.1441 13.5998 12.1415 13.6009 12.1394L14.1553 8.73537L14.1574 8.72389C14.1606 8.69781 14.1652 8.66756 14.1887 8.66756C14.3075 8.65278 14.4222 8.6145 14.5261 8.55494C14.63 8.49539 14.721 8.41576 14.7938 8.32069C14.7985 8.31547 14.8016 8.30974 14.8079 8.30661C14.8246 8.29878 14.8444 8.30661 14.8616 8.31391L19.8951 10.4431H19.8956ZM16.44 13.9905L12.6917 17.7388L13.3333 13.7955L13.3343 13.7902C13.3349 13.785 13.3359 13.7798 13.3375 13.7751C13.3427 13.7626 13.3562 13.7574 13.3693 13.7522L13.3755 13.7496C13.516 13.6896 13.6403 13.5972 13.7381 13.4799C13.7506 13.4653 13.7657 13.4512 13.785 13.4486C13.79 13.4478 13.7951 13.4478 13.8001 13.4486L16.4395 13.9911L16.44 13.9905ZM11.8984 18.5322L11.4759 18.9547L6.80487 12.204C6.80318 12.2016 6.80144 12.1991 6.79965 12.1967C6.79235 12.1868 6.78453 12.1769 6.78609 12.1654C6.78609 12.1571 6.79183 12.1498 6.79757 12.1435L6.80278 12.1368C6.81687 12.1159 6.82886 12.095 6.8419 12.0726L6.85234 12.0543L6.8539 12.0528C6.8612 12.0403 6.86798 12.0283 6.8805 12.0215C6.89146 12.0163 6.90658 12.0184 6.91858 12.021L12.0934 13.0882C12.1079 13.0904 12.1216 13.0963 12.1331 13.1054C12.1399 13.1122 12.1414 13.1195 12.143 13.1278C12.1791 13.2644 12.2463 13.3908 12.3393 13.4971C12.4323 13.6034 12.5486 13.6868 12.6792 13.7407C12.6938 13.748 12.6875 13.7642 12.6808 13.7814C12.6774 13.7889 12.6748 13.7968 12.6729 13.8049C12.6077 14.2013 12.0486 17.6115 11.8984 18.5322ZM11.0158 19.4142C10.7044 19.7225 10.5208 19.8857 10.3132 19.9515C10.1085 20.0162 9.88882 20.0162 9.68413 19.9515C9.44107 19.8743 9.23086 19.6646 8.81097 19.2442L4.12016 14.5534L5.34542 12.6531C5.35115 12.6438 5.35689 12.6354 5.36628 12.6286C5.37932 12.6192 5.3981 12.6234 5.41375 12.6286C5.69498 12.7135 5.99693 12.6982 6.26814 12.5853C6.28222 12.5801 6.2963 12.5765 6.30726 12.5864C6.31274 12.5914 6.31763 12.597 6.32186 12.6031L11.0158 19.4142V19.4142ZM3.66741 14.1011L2.59186 13.0251L4.71688 12.1185C4.72231 12.1161 4.72817 12.1149 4.73409 12.1149C4.75183 12.1149 4.76226 12.1326 4.77165 12.1488C4.79301 12.1816 4.81563 12.2136 4.83946 12.2447L4.84624 12.2531C4.8525 12.2619 4.84833 12.2708 4.84207 12.2792L3.66845 14.1011H3.66741ZM2.11511 12.5488L0.75372 11.1874C0.522127 10.9558 0.35417 10.7879 0.237331 10.6434L4.3768 11.502C4.38199 11.5029 4.38721 11.5038 4.39244 11.5046C4.418 11.5087 4.44617 11.5134 4.44617 11.5374C4.44617 11.5635 4.41539 11.5755 4.38931 11.5854L4.37732 11.5906L2.11511 12.5488V12.5488ZM0.000521607 9.94341C0.00523909 9.85571 0.021012 9.76896 0.0474661 9.68521C0.124664 9.44214 0.334349 9.23246 0.754764 8.81204L2.49693 7.06988C3.29907 8.23404 4.10339 9.3967 4.90988 10.5579C4.92396 10.5766 4.93961 10.5975 4.92344 10.6131C4.84728 10.6971 4.77113 10.7889 4.7174 10.8886C4.71158 10.9014 4.7026 10.9125 4.69132 10.9209C4.68454 10.9251 4.67724 10.9235 4.66942 10.9219H4.66837L0 9.94289L0.000521607 9.94341ZM2.96324 6.60356L5.30525 4.26103C5.52589 4.35753 6.3276 4.69605 7.04377 4.99858C7.58624 5.22809 8.08072 5.43673 8.23616 5.50454C8.2518 5.5108 8.26589 5.51706 8.27267 5.53271C8.27684 5.5421 8.27476 5.55409 8.27267 5.564C8.23559 5.7331 8.2411 5.90875 8.28872 6.07518C8.33634 6.24162 8.42456 6.39361 8.54547 6.5175C8.56112 6.53315 8.54547 6.55558 8.53191 6.57488L8.5246 6.58583L6.14608 10.2699C6.13982 10.2804 6.13409 10.2892 6.12365 10.296C6.11113 10.3038 6.0934 10.3002 6.07879 10.2965C5.98629 10.2723 5.89118 10.2593 5.79556 10.2579C5.71002 10.2579 5.61717 10.2736 5.52328 10.2908H5.52276C5.51233 10.2924 5.50294 10.2944 5.4946 10.2882C5.48538 10.2807 5.47745 10.2717 5.47112 10.2616L2.96324 6.60356V6.60356ZM5.77887 3.78794L8.81149 0.75532C9.23138 0.335428 9.44159 0.125221 9.68466 0.0485446C9.88935 -0.0161815 10.109 -0.0161815 10.3137 0.0485446C10.5568 0.125221 10.767 0.335428 11.1869 0.75532L11.8441 1.41254L9.68674 4.75239C9.68141 4.76211 9.67413 4.77063 9.66536 4.77742C9.65232 4.78629 9.63406 4.78264 9.61841 4.77742C9.44836 4.72582 9.2683 4.71642 9.0938 4.75005C8.9193 4.78368 8.75562 4.85931 8.61693 4.97042C8.60285 4.98502 8.58198 4.97668 8.56425 4.96885C8.28258 4.84627 6.09183 3.92042 5.77835 3.78742L5.77887 3.78794ZM12.3021 1.87051L14.2936 3.862L13.8137 6.83411V6.84194C13.8133 6.84871 13.8119 6.85539 13.8095 6.86176C13.8043 6.87219 13.7939 6.87428 13.7834 6.87741C13.6808 6.90849 13.5842 6.95662 13.4976 7.01981C13.4939 7.02246 13.4904 7.02543 13.4872 7.02867C13.4814 7.03493 13.4757 7.04067 13.4663 7.04171C13.4587 7.04195 13.451 7.04071 13.4439 7.03806L10.4092 5.74865L10.4034 5.74604C10.3841 5.73822 10.3612 5.72883 10.3612 5.70901C10.3433 5.5399 10.2881 5.37687 10.1995 5.23174C10.1849 5.20775 10.1687 5.18271 10.1812 5.15819L12.3021 1.87051V1.87051ZM10.2501 6.35893L13.0949 7.56384C13.1106 7.57114 13.1278 7.57792 13.1346 7.59409C13.1373 7.60382 13.1373 7.6141 13.1346 7.62383C13.1262 7.66555 13.1189 7.71302 13.1189 7.76101V7.84081C13.1189 7.86063 13.0986 7.86898 13.0798 7.8768L13.0741 7.87889C12.6234 8.07136 6.74697 10.5772 6.7381 10.5772C6.72924 10.5772 6.71985 10.5772 6.71098 10.5683C6.69533 10.5526 6.71098 10.5307 6.72506 10.5109C6.72755 10.5075 6.72999 10.504 6.73237 10.5005L9.0702 6.88054L9.07438 6.87428C9.08794 6.85237 9.10359 6.82785 9.12862 6.82785L9.1521 6.83151C9.2053 6.83881 9.25224 6.84559 9.29971 6.84559C9.6544 6.84559 9.98301 6.67294 10.1812 6.37771C10.1859 6.36983 10.1919 6.36278 10.199 6.35684C10.213 6.34641 10.2339 6.35163 10.2501 6.35893V6.35893ZM6.99213 11.1499L13.3974 8.41823C13.3974 8.41823 13.4068 8.41823 13.4157 8.4271C13.4507 8.46205 13.4804 8.48552 13.5091 8.50743L13.5232 8.51629C13.5362 8.5236 13.5492 8.53194 13.5503 8.5455C13.5503 8.55072 13.5503 8.55385 13.5492 8.55854L13.001 11.9297L12.9989 11.9432C12.9953 11.9693 12.9916 11.9991 12.9671 11.9991C12.8208 12.0089 12.6791 12.0543 12.5544 12.1313C12.4296 12.2083 12.3254 12.3145 12.251 12.4409L12.2483 12.445C12.241 12.457 12.2343 12.4685 12.2223 12.4748C12.2113 12.48 12.1972 12.4779 12.1858 12.4753L7.07767 11.4216C7.07245 11.4206 6.99839 11.1509 6.99265 11.1504L6.99213 11.1499Z" fill="white"/>
</svg>
