<svg width="48" height="20" viewBox="0 0 48 20" fill="none" xmlns="http://www.w3.org/2000/svg">
<g clip-path="url(#clip0_656_594)">
<path d="M9.25883 8.56571H5.21735C5.16744 8.56571 5.11957 8.58554 5.08428 8.62083C5.04898 8.65612 5.02916 8.70399 5.02916 8.7539V10.7293C5.02916 10.7793 5.04894 10.8273 5.0842 10.8628C5.11945 10.8983 5.16732 10.9184 5.21735 10.9188H6.79363V13.3706C6.79363 13.3706 6.43994 13.4921 5.45893 13.4921C4.30441 13.4921 2.69209 13.0703 2.69209 9.52402C2.69209 5.97772 4.37115 5.51191 5.94743 5.51191C7.3115 5.51191 7.9001 5.75216 8.27382 5.86694C8.3011 5.87222 8.3292 5.87145 8.35615 5.86466C8.38309 5.85788 8.40822 5.84525 8.42974 5.82767C8.45126 5.8101 8.46866 5.78801 8.48069 5.76296C8.49273 5.73792 8.49911 5.71054 8.49938 5.68275L8.95452 3.77413C8.9556 3.74541 8.94959 3.71687 8.93702 3.69103C8.92445 3.66519 8.90571 3.64284 8.88244 3.62597C8.73029 3.51786 7.804 3 5.46294 3C2.7655 3 0 4.14651 0 9.66283C0 15.1792 3.16725 16 5.83532 16C8.04559 16 9.38696 15.0564 9.38696 15.0564C9.40805 15.0394 9.42458 15.0175 9.43506 14.9926C9.44555 14.9676 9.44966 14.9405 9.44702 14.9136V8.75257C9.44667 8.70289 9.42669 8.65536 9.39143 8.62036C9.35618 8.58535 9.30851 8.56571 9.25883 8.56571V8.56571Z" fill="black"/>
<path d="M30.0775 3.66072C30.0779 3.63596 30.0733 3.61137 30.0641 3.58839C30.0549 3.56541 30.0411 3.5445 30.0238 3.52686C30.0064 3.50923 29.9857 3.49522 29.9628 3.48567C29.94 3.47611 29.9154 3.47119 29.8907 3.47119H27.6217C27.5969 3.47119 27.5723 3.4761 27.5493 3.48564C27.5264 3.49518 27.5056 3.50917 27.4881 3.52678C27.4706 3.5444 27.4568 3.5653 27.4474 3.58829C27.438 3.61128 27.4333 3.63589 27.4335 3.66072V8.05589H23.8832V3.66072C23.8834 3.63589 23.8786 3.61128 23.8692 3.58829C23.8599 3.5653 23.846 3.5444 23.8285 3.52678C23.811 3.50917 23.7902 3.49518 23.7673 3.48564C23.7444 3.4761 23.7198 3.47119 23.695 3.47119H21.426C21.4012 3.47119 21.3766 3.4761 21.3537 3.48564C21.3307 3.49518 21.3099 3.50917 21.2924 3.52678C21.275 3.5444 21.2611 3.5653 21.2517 3.58829C21.2424 3.61128 21.2376 3.63589 21.2378 3.66072V15.5636C21.2378 15.6136 21.2576 15.6616 21.2928 15.6971C21.3281 15.7326 21.376 15.7528 21.426 15.7531H23.695C23.745 15.7528 23.7929 15.7326 23.8281 15.6971C23.8634 15.6616 23.8832 15.6136 23.8832 15.5636V10.4717H27.4281L27.4215 15.5636C27.4218 15.6138 27.4419 15.6618 27.4774 15.6972C27.5128 15.7327 27.5608 15.7528 27.611 15.7531H29.8907C29.9154 15.7529 29.9398 15.7479 29.9626 15.7383C29.9854 15.7287 30.006 15.7147 30.0234 15.6971C30.0407 15.6795 30.0544 15.6586 30.0637 15.6357C30.073 15.6128 30.0777 15.5883 30.0775 15.5636V3.66072Z" fill="black"/>
<path d="M13.5515 5.229C13.5489 4.9392 13.4605 4.65667 13.2976 4.41699C13.1347 4.17731 12.9045 3.99121 12.636 3.88214C12.3675 3.77306 12.0727 3.74588 11.7888 3.80403C11.5049 3.86218 11.2446 4.00305 11.0406 4.2089C10.8366 4.41475 10.6981 4.67636 10.6425 4.96079C10.5869 5.24522 10.6168 5.53973 10.7283 5.80723C10.8398 6.07472 11.0279 6.30324 11.2691 6.46398C11.5102 6.62472 11.7935 6.7105 12.0833 6.71052C12.2773 6.71052 12.4693 6.67211 12.6483 6.59749C12.8273 6.52288 12.9897 6.41354 13.1262 6.27579C13.2628 6.13804 13.3706 5.97461 13.4436 5.79494C13.5166 5.61527 13.5533 5.42292 13.5515 5.229V5.229Z" fill="black"/>
<path d="M13.3887 13.0516V7.55794C13.3887 7.5079 13.369 7.4599 13.3337 7.42439C13.2984 7.38888 13.2506 7.36876 13.2005 7.36841H10.9316C10.8785 7.37303 10.8291 7.39715 10.7929 7.43611C10.7566 7.47507 10.7361 7.52609 10.7354 7.57929V15.454C10.7354 15.6849 10.8795 15.7543 11.065 15.7543H13.1085C13.3327 15.7543 13.3874 15.6436 13.3874 15.45L13.3887 13.0516Z" fill="black"/>
<path d="M38.718 7.38574H36.465C36.4149 7.38644 36.367 7.40686 36.3318 7.44258C36.2966 7.4783 36.2768 7.52644 36.2768 7.5766V13.4133C35.8649 13.6842 35.3832 13.8298 34.8901 13.8324C34.0759 13.8324 33.8597 13.4626 33.8597 12.6658V7.5766C33.8601 7.52657 33.8406 7.47842 33.8056 7.44266C33.7706 7.40691 33.7229 7.38645 33.6728 7.38574H31.3772C31.327 7.38644 31.2791 7.40686 31.2439 7.44258C31.2087 7.4783 31.189 7.52644 31.189 7.5766V13.0489C31.189 15.4153 32.509 15.9946 34.3242 15.9946C35.8124 15.9946 37.0123 15.1724 37.0123 15.1724C37.0315 15.3353 37.0596 15.497 37.0964 15.6569C37.1126 15.687 37.1364 15.7122 37.1655 15.7303C37.1945 15.7483 37.2277 15.7584 37.2619 15.7597H38.7194C38.7695 15.759 38.8174 15.7385 38.8526 15.7028C38.8878 15.6671 38.9076 15.619 38.9076 15.5688V7.5766C38.9077 7.5516 38.903 7.52681 38.8935 7.50367C38.8841 7.48052 38.8701 7.45946 38.8525 7.44172C38.8349 7.42398 38.8139 7.4099 38.7909 7.4003C38.7678 7.39069 38.743 7.38574 38.718 7.38574V7.38574Z" fill="black"/>
<path d="M44.8923 7.11893C44.1365 7.11438 43.3931 7.31207 42.7394 7.69152V3.66072C42.7396 3.63589 42.7349 3.61128 42.7255 3.58829C42.7161 3.5653 42.7023 3.5444 42.6848 3.52678C42.6673 3.50917 42.6465 3.49518 42.6236 3.48564C42.6006 3.4761 42.5761 3.47119 42.5512 3.47119H40.2702C40.2454 3.47119 40.2208 3.4761 40.1979 3.48564C40.175 3.49518 40.1542 3.50917 40.1367 3.52678C40.1192 3.5444 40.1054 3.5653 40.096 3.58829C40.0866 3.61128 40.0819 3.63589 40.082 3.66072V15.5636C40.082 15.6136 40.1018 15.6616 40.1371 15.6971C40.1723 15.7326 40.2202 15.7528 40.2702 15.7531H41.8532C41.8872 15.7528 41.9205 15.7434 41.9497 15.7258C41.9788 15.7082 42.0026 15.683 42.0187 15.653C42.0641 15.4723 42.0963 15.2885 42.1148 15.1031C42.1148 15.1031 43.0491 15.988 44.8122 15.988C46.885 15.988 48.0742 14.9363 48.0742 11.2672C48.0742 7.59809 46.1763 7.11893 44.8923 7.11893ZM44.0021 13.8258C43.5389 13.8137 43.0866 13.6827 42.6887 13.4454V9.67622C43.0475 9.47157 43.4446 9.34299 43.8552 9.2985C44.6681 9.22509 45.4569 9.47068 45.4569 11.41C45.4515 13.4548 45.0978 13.8578 44.0021 13.8258Z" fill="black"/>
<path d="M19.9259 7.36435H18.2202V5.11003C18.2202 5.02461 18.1761 4.97656 18.0774 4.97656H15.7497C15.6589 4.97656 15.6162 5.0166 15.6162 5.11003V7.43909C15.6162 7.43909 14.451 7.72071 14.3722 7.7434C14.3335 7.7554 14.2996 7.7795 14.2756 7.81217C14.2516 7.84485 14.2387 7.88436 14.2388 7.92492V9.39309C14.2386 9.41792 14.2433 9.44254 14.2527 9.46552C14.2621 9.48851 14.2759 9.50941 14.2934 9.52703C14.3109 9.54465 14.3317 9.55863 14.3546 9.56817C14.3776 9.57771 14.4021 9.58262 14.427 9.58262H15.6189V13.1036C15.6189 15.7182 17.4527 15.9758 18.6887 15.9758C19.1446 15.9605 19.5965 15.8851 20.0327 15.7516C20.0657 15.7373 20.0936 15.7133 20.1127 15.6828C20.1318 15.6523 20.1411 15.6167 20.1395 15.5808V13.9711C20.1392 13.9211 20.1193 13.8731 20.0842 13.8375C20.049 13.8018 20.0013 13.7813 19.9513 13.7803C19.8512 13.7803 19.5976 13.8216 19.3347 13.8216C18.4978 13.8216 18.2135 13.4319 18.2135 12.9274V9.57995H19.9259C19.9508 9.57995 19.9754 9.57504 19.9983 9.5655C20.0212 9.55596 20.042 9.54198 20.0595 9.52436C20.077 9.50674 20.0908 9.48584 20.1002 9.46285C20.1096 9.43987 20.1143 9.41525 20.1141 9.39042V7.55654C20.1145 7.53154 20.1099 7.50672 20.1006 7.4835C20.0913 7.46029 20.0775 7.43914 20.06 7.42127C20.0426 7.4034 20.0217 7.38918 19.9987 7.37941C19.9757 7.36964 19.9509 7.36452 19.9259 7.36435V7.36435Z" fill="black"/>
</g>
<defs>
<clipPath id="clip0_656_594">
<rect width="48" height="20" fill="white"/>
</clipPath>
</defs>
</svg>
