<svg width="21" height="20" viewBox="0 0 21 20" fill="none" xmlns="http://www.w3.org/2000/svg">
<g clip-path="url(#clip0_635_842)">
<path fill-rule="evenodd" clip-rule="evenodd" d="M10.2547 -7.18513e-05C7.81771 -0.00254871 5.45951 0.862898 3.60269 2.44118C1.74586 4.01946 0.511768 6.20741 0.121581 8.61294C-0.268606 11.0185 0.210615 13.4843 1.47335 15.5686C2.73609 17.6529 4.69982 19.2194 7.01262 19.9873C7.52253 20.0818 7.71139 19.7607 7.71139 19.49C7.71139 19.2193 7.71139 18.6024 7.71139 17.7462C4.85964 18.3758 4.2553 16.3739 4.2553 16.3739C4.06527 15.7534 3.66158 15.2204 3.11586 14.8693C2.19046 14.2398 3.1914 14.2398 3.1914 14.2398C3.51579 14.2856 3.8255 14.4046 4.09708 14.5879C4.36866 14.7711 4.59499 15.0137 4.75892 15.2974C4.89821 15.5499 5.08599 15.7725 5.31151 15.9523C5.53703 16.1321 5.79583 16.2656 6.07308 16.3452C6.35032 16.4247 6.64053 16.4488 6.92708 16.4159C7.21362 16.383 7.49085 16.2938 7.74286 16.1535C7.78237 15.6357 8.00563 15.1489 8.37238 14.7812C6.0935 14.5231 3.70131 13.6417 3.70131 9.71349C3.68566 8.69554 4.06208 7.71055 4.75262 6.96247C4.44444 6.07747 4.4804 5.10894 4.85334 4.24922C4.85334 4.24922 5.71579 3.97222 7.67361 5.30052C9.35481 4.83892 11.1293 4.83892 12.8105 5.30052C14.7684 3.97222 15.6245 4.24922 15.6245 4.24922C16.0014 5.10771 16.0396 6.07696 15.7315 6.96247C16.4221 7.71055 16.7985 8.69554 16.7828 9.71349C16.7828 13.6543 14.3843 14.5168 12.0992 14.7497C12.3442 14.996 12.5334 15.2921 12.654 15.618C12.7745 15.9438 12.8236 16.2918 12.7979 16.6383C12.7979 18.0106 12.7979 19.1186 12.7979 19.4522C12.7979 19.7859 12.9805 20.044 13.503 19.9496C15.8085 19.1744 17.7637 17.6054 19.0198 15.5225C20.2759 13.4396 20.7513 10.9782 20.3611 8.57732C19.9709 6.17647 18.7406 3.99229 16.8895 2.41436C15.0384 0.836428 12.687 -0.032643 10.2547 -0.0378418V-7.18513e-05Z" fill="white"/>
</g>
<defs>
<clipPath id="clip0_635_842">
<rect width="20.5099" height="20" fill="white"/>
</clipPath>
</defs>
</svg>
