<svg width="21" height="20" viewBox="0 0 21 20" fill="none" xmlns="http://www.w3.org/2000/svg">
<path fill-rule="evenodd" clip-rule="evenodd" d="M10.2439 0.0376907C7.81203 0.0352191 5.45878 0.898851 3.60585 2.47382C1.75292 4.0488 0.521414 6.23216 0.132045 8.63263C-0.257323 11.0331 0.220893 13.4938 1.48098 15.5737C2.74108 17.6536 4.70068 19.2168 7.00863 19.9832C7.51748 20.0774 7.70594 19.757 7.70594 19.4869C7.70594 19.2168 7.70594 18.6011 7.70594 17.7468C4.86017 18.375 4.25709 16.3773 4.25709 16.3773C4.06747 15.7582 3.66462 15.2262 3.12004 14.8759C2.19658 14.2477 3.19542 14.2477 3.19542 14.2477C3.51914 14.2934 3.8282 14.4122 4.09921 14.595C4.37022 14.7779 4.59607 15.02 4.75966 15.3031C4.89865 15.5551 5.08605 15.7772 5.31109 15.9566C5.53613 16.1361 5.7944 16.2693 6.07106 16.3487C6.34772 16.428 6.63733 16.452 6.92327 16.4192C7.20921 16.3864 7.48586 16.2974 7.73734 16.1574C7.77677 15.6406 7.99956 15.1549 8.36554 14.7879C6.09144 14.5304 3.70427 13.6509 3.70427 9.73088C3.68865 8.71506 4.06428 7.73214 4.75337 6.98563C4.44584 6.10249 4.48173 5.13598 4.85388 4.27807C4.85388 4.27807 5.71452 4.00165 7.66824 5.32716C9.34591 4.86654 11.1167 4.86654 12.7944 5.32716C14.7481 4.00165 15.6025 4.27807 15.6025 4.27807C15.9785 5.13476 16.0167 6.10198 15.7093 6.98563C16.3983 7.73214 16.774 8.71506 16.7584 9.73088C16.7584 13.6634 14.3649 14.5241 12.0845 14.7565C12.329 15.0023 12.5179 15.2978 12.6382 15.623C12.7585 15.9481 12.8075 16.2954 12.7818 16.6411C12.7818 18.0106 12.7818 19.1163 12.7818 19.4492C12.7818 19.7822 12.964 20.0397 13.4854 19.9455C15.7861 19.1719 17.7372 17.6062 18.9907 15.5277C20.2441 13.4491 20.7185 10.9929 20.3291 8.59709C19.9398 6.20127 18.712 4.02168 16.8648 2.44706C15.0176 0.872436 12.6711 0.00518787 10.2439 0V0.0376907Z" fill="black"/>
</svg>
