<?xml version="1.0" encoding="UTF-8"?>
<svg version="1.1" viewBox="0 0 24 24" xmlns="http://www.w3.org/2000/svg">
 <path d="m8.2032 5.4473-2.3737 1.3293 1.3293-2.3737-1.3293-2.3737 2.3737 1.3293 2.3737-1.3293-1.3293 2.3737 1.3293 2.3737-2.3737-1.3293m11.394 9.3051 2.3737-1.3293-1.3293 2.3737 1.3293 2.3737-2.3737-1.3293-2.3737 1.3293 1.3293-2.3737-1.3293-2.3737 2.3737 1.3293m2.3737-12.723-1.3293 2.3737 1.3293 2.3737-2.3737-1.3293-2.3737 1.3293 1.3293-2.3737-1.3293-2.3737 2.3737 1.3293 2.3737-1.3293m-8.2227 10.236 2.3168-2.3168-2.0129-2.0129-2.3168 2.3168 2.0129 2.0129m0.97798-5.2127 2.2218 2.2218c0.3703 0.35131 0.3703 0.96849 0 1.3388l-11.081 11.081c-0.3703 0.3703-0.98748 0.3703-1.3388 0l-2.2218-2.2218c-0.3703-0.35131-0.3703-0.96849 0-1.3388l11.081-11.081c0.3703-0.3703 0.98748-0.3703 1.3388 0z" fill="#ef5350" stroke-width=".9495"/>
</svg>
