<?xml version="1.0" encoding="UTF-8"?>
<svg fill="none" version="1.1" viewBox="0 0 24 24" xmlns="http://www.w3.org/2000/svg">
 <path d="m11.998 2a9.993 9.993 0 0 0-9.998 10 9.993 9.993 0 0 0 10 10c5.528 0 10-4.473 10-10-1e-3 -5.527-4.51-10-10.002-10zm-4.69 12.146c0.327 0.436 0.763 0.618 1.381 0.618 0.292 0 0.583-0.037 0.837-0.146 0.255-0.108 0.546-0.255 0.908-0.473l1.019 1.454c-0.836 0.692-1.782 1.018-2.873 1.018-0.873 0-1.6-0.182-2.254-0.545a3.66 3.66 0 0 1-1.454-1.599c-0.327-0.691-0.509-1.491-0.509-2.437 0-0.908 0.182-1.745 0.508-2.436a3.853 3.853 0 0 1 1.457-1.672c0.617-0.4 1.38-0.582 2.217-0.582 0.583 0 1.128 0.072 1.564 0.254 0.49 0.19 0.944 0.46 1.345 0.8l-1.018 1.382a3.987 3.987 0 0 0-0.836-0.474c-0.254-0.108-0.582-0.145-0.873-0.145-1.236 0-1.854 0.945-1.854 2.872-0.036 0.983 0.146 1.673 0.437 2.11zm10 2.254c-0.363 1.128-0.909 1.964-1.673 2.582-0.763 0.619-1.782 0.946-3.054 1.055l-0.254-1.708c0.836-0.11 1.454-0.292 1.854-0.583 0.145-0.108 0.437-0.436 0.437-0.436l-3.019-9.673h2.508l1.746 7.236 1.855-7.236h2.436z" fill="#00bfa5"/>
</svg>
