<?xml version="1.0" encoding="UTF-8"?>
<svg enable-background="new 0 0 1424.1 1368" version="1.1" viewBox="0 0 1424.1 1368" xml:space="preserve" xmlns="http://www.w3.org/2000/svg">
<style type="text/css">
	.st0{fill:#FF5252;}
	.st1{fill:#FFFFFF;stroke:#231F20;stroke-miterlimit:10;}
	.st2{fill:#FFFFFF;}
</style>
<title>DinoPHP-icon</title>






<g transform="matrix(1.0312 0 0 1.0312 -22.154 -21.203)"><g transform="matrix(1.0181 0 0 1.0181 -12.919 -12.41)"><path class="st0" transform="matrix(.96976 0 0 .96976 21.484 20.562)" d="m1094.9 140.38c-12.22 0.28357-29.903 1.7002-54.961 5.7734-31.658 5.1559-55.169 11.343-60.428 12.684-38.463 10.209-66.305 21.759-91.363 32.174-14.127 5.8778-32.69 13.612-55.582 25.471l-0.7207 0.41211c-10.931 5.6715-19.387 10.209-23.924 12.684l-2.3711 1.2363c-16.396 8.8682-32.277 15.674-48.879 24.336 0 0-15.879 8.3537-39.287 23.615-6.8058 4.4341-12.684 8.8672-12.684 8.8672-1.9593 1.4437-3.5079 2.6809-4.5391 3.5059-5.5684 4.4341-10.723 9.3843-15.363 14.85-4.4341 5.1559-10.829 12.582-15.057 23.1-6.9089 16.808-4.6386 32.275-3.6074 39.287 1.4437 8.9713 4.433 28.151 19.488 40.938 11.549 10.002 25.162 11.654 33.205 12.479 49.188 4.5372 96.416-5.2592 126.73-9.1777 40.732-5.1559 71.771-2.2686 96.52 0 45.166 4.2279 94.868 8.8672 146.22 41.35 12.168 7.7339 44.857 29.905 73.111 70.74 12.374 17.84 31.245 45.167 38.463 84.455 7.1152 39.185-0.8249 71.46 7.6309 73.625 4.0216 1.0312 8.5599-5.2582 17.531-17.529 11.859-16.293 21.242-34.235 27.842-53.209 2.578-7.5277 5.1566-18.769 10.312-41.352 5.6715-24.542 8.4544-36.812 10.31-48.465 1.5468-10.002 3.4028-24.542 4.0215-62.799 0.6187-42.897 0.928-64.347-1.5468-87.445-3.403-31.451-10.311-62.386-20.623-92.188-11.137-31.451-22.583-63.109-50.838-93.014-20.314-21.552-38.257-30.523-44.547-33.41-17.84-8.3526-32.997-10.517-42.896-11.961-3.1967-0.46404-9.9524-1.3148-22.172-1.0312zm-98.877 80.932c11.89 0.1154 19.914 2.775 21.848 8.8848 5.1559 16.293-23.511 47.64-73.111 63.314-49.6 15.571-115.29 6.908-120.44-9.3848s40.732-30.831 90.332-46.402c31-9.7318 61.556-16.604 81.373-16.412z" stroke-width="1.0312"/><path class="st0" d="m915.3 454c1.7-5.1 26.1-1.4 35.5 0 26.6 4 52.8 8 84 24.7 22.4 11.9 56.3 35.1 81.7 76.3 5 8 28.6 47.5 31.6 104.8 2.8 52.3-13.2 91.2-21.6 111-35.3 83.2-101 126.4-132.8 146.7-21.8 13.9-77.7 46.4-153.4 55.2-38.8 4.5-90.2 3.7-92.2-6.4-0.6-3.2 3.8-7 10.5-12.8 3.1-2.7 11.4-9.4 25.7-13.1 8-2.1 11.6-1.6 31.1-2 18.7-0.4 28-0.6 34.2-1.4 13.9-2 27.6-5.7 40.5-11.2 9.3-3.9 16.5-6.8 25.2-13.1 10.2-7.5 18.9-16.8 25.7-27.5 3.9-5.9 7.5-11.4 10.5-19.5 2.5-6.6 2.9-10.3 6.6-15.8 3.5-5.2 6.4-6.8 10.6-10.8 3.3-3.1 5.8-6.1 17-24.9 8.1-13.6 12.1-20.4 14.6-25.2 11.6-22.5 15.9-43.3 18.3-55.1 8.5-41.9 4.4-77.1 2.3-94.8-3.8-31.3-7.5-62.4-27-97.1-12.9-23-29.6-52.7-61.7-73.2-6.3-4.3-18.1-11-16.9-14.8z"/><path class="st0" d="m837.6 880.5s6.3-13.3 20.5-53.3c5.4-15.1 8.5-23.8 9.9-36.9 1.8-16.6-0.2-29.8-4.2-55.9-1-6.9-2.5-13.7-4.6-20.4-1.5-4.8-2.9-7.9-7.3-18-11.5-25.9-14.1-30.8-19.1-36.8-7.7-9.2-12.4-10.5-14.1-10.8-7.6-1.5-17 2.1-19.8 8.5-2.5 5.7 1 11.8 4.8 19.1 0 0 5.5 10.7 18.2 43.9 6.8 17.9 7.4 33 7.8 45.3 1.5 44.5-17.1 78.2-23.3 89-17 29.8-38.1 46.8-53.6 59-32.5 25.5-67.4 39.5-85.2 46.6-28.5 11.4-42.6 13.5-54.7 29.3-9.4 12.3-11.2 24.8-14.3 45.9 0 0-5.2 36.2 8.9 78.2 2.6 7.9 5.6 14.7 12.3 19.3 9.6 6.5 21.5 4.4 31.2 2.7 13.2-2.3 25.7-7.7 37.4-12.7 9.3-4 15.8-7.4 23.5-5.1 3.3 1 6.4 2.9 10.8 7.4 10.1 10.5 15.5 23.2 18.9 35.8 5.7 20.8 8.8 32.5 2.3 38.9-7 6.9-22.8 5.4-32.4-0.4-6.6-4-6.9-8.1-14.3-10.8-5.7-2.1-10-1.3-20-0.4-8.3 0.7-16.7 0.8-25 1.2-21.8 1.1-32.7 1.6-42 1.2-12.8-0.6-18.9-1.9-22.7 2.3-4.3 4.7-1.5 11.5-6.9 15.8-3.2 2.5-7.1 2.6-11.6 2.7-5.2 0.1-11.2-1.1-14.6-3.1-8.3-4.8-6.5-17.1-8.9-45.1-1.5-18.1-2.5-14.5-6.6-48.9-0.8-7.6-2-15.1-3.7-22.5-1.6-7.1-2.7-9.6-4.4-17.2-1.5-6.7-2.7-13.6-3.5-20.4-1.2-9.8-4.1-27.7-10.8-62.8 0 0-13.1-56.2-4.2-74.8 2.9-6 7.3-7.7 7.3-7.7 1.2-0.5 2.2-0.5 6.6-0.4 7.1 0.3 10.6 0.4 15.8 1.2 6.9 1 6.5 1.7 9.2 1.5 4.5-0.3 8.7-2.1 11.9-5.1 5.2-5.1 4.7-12.8 4.9-19.3 0.1-3 0.2-0.7 10.5-39.6 8.4-31.4 7.6-30.2 10-37.5 4.7-14 9.5-24.3 14.6-34.9 18.4-37.9 27.5-56.8 37.8-73.6 20.6-33.7 40.1-55.2 64.4-82.1 24.5-27.1 45.8-50.4 79.8-74.4 36.2-25.5 57.8-31.4 74.8-33.1 10.7-1.1 26.3-2.7 43.5 4.2 28.3 11.4 40.8 38 52.4 62.4 18.6 39.2 20.4 74.1 21.2 93.3 1.5 35.6-4.4 61.9-7.7 76.3-10.4 45.2-28.7 77.2-39.5 81.3-1.2 0.5-6.8 2.3-8.9 7.1-1.5 3.5-0.5 6.9-0.2 8.3 2.8 12.4-10.4 29-13.1 32.4-12.2 15.3-28.2 19.6-37 22-2.1 0.6-31.9 8.3-37.4-1.5-2.1-3.8 0.5-8.3 4.4-16.6z"/><path class="st1" d="m709.2 730.6"/><path class="st0" d="m601.7 709.4c0.1 3.9-0.1 7.7-0.4 11.6-1.7 20.2-8.4 32.2-17.1 52.2-9.5 21.9-15.1 34.7-19.8 53.2-3 11.8-6.9 23.3-9.1 35.3-2.6 14.2-2.5 20.6-7.8 23.9-5.8 3.6-10.3-1.6-28-2-9.2-0.2-16.1 1-23.1 5.6-6.5 4.3-10.2 9.4-11.3 12.1-1.8 4.2-2.7 8.8-2.6 13.4 1.3 51.2 0.8 58.5-1.3 61.7-3.4 5.2-14.6 7.9-31.6 14.1-6.6 2.4-23.8 8.5-56.3 14.4-19.3 3.5-33.9 6.2-54.5 6.8-14.2 0.6-28.3 0-42.4-1.9-16.3-2.2-39.2-5.3-63.2-18.2-10.1-5.4-45.2-24.3-61.7-65.8-11.4-28.7-8.3-54.1-6.7-66.5 2.7-21 10.1-41.1 21.6-58.8 7.7-11.7 22.2-32.9 50.3-45 15-6.4 31.3-9.2 47.6-8.1 34.8 2.6 74 24.3 82.5 55.8 1 3.6 5.7 22.9-4.4 37-1.5 2.1-5.9 8.3-10.8 7.7-5.1-0.6-6.8-7.9-13.9-21.1-5.9-11-8.9-16.5-14.1-21.6-13.8-13.4-32.9-13.4-34.9-13.4-20.2 0.3-33.1 13.2-38.5 18.5-4.1 4.1-20.5 20.8-20 46.8 0.1 3.3 0.7 24.6 17 41.6 17.4 18.3 41.1 19.5 54.5 20 30.7 1.2 55.4-10.4 81.7-25.7 3.1-1.8 5.6-3.3 7.7-4.6 46.1-28.8 84-61.5 107-83.4 15.8-15.1 20.5-20.9 39.9-38.5 15.1-13.7 17.4-14.9 26-23.9 7.6-8 12.9-14.5 23.1-22.7 4.6-3.8 9.5-7.3 14.6-10.5z"/><path class="st0" d="m874.9 1007.9c1.9-1.4 5.9-1.4 14.3-1.5 5.9-0.1-1.1 0 12.2-0.1 9.2-0.1 10.6 0.1 15.9 0 2.5-0.1 3.2-0.1 8-0.3 3.2-0.1 7.7-0.2 10.8-0.2 1.5 0 2.7 1.2 2.7 2.6v0.1c-0.1 5.8 0.2 11.7-0.1 18.3-0.1 2.9-0.1 5.8 0 8.6 0.1 2.3 0.1 4.7 0 7-0.3 6.3-0.4 22.1 3.9 45.6 1.1 6 2.1 10.9 6.2 15.2 6 6.3 14.8 6.8 20.5 7.2 11.9 0.8 21.5-2.9 32.5-7.2 14.7-5.8 17.6-9.6 25-8.5 2.7 0.4 8.8 1.7 16.4 10.3 5.6 6.3 8.2 12.3 13.2 24.1 2.7 6.1 4.9 12.3 6.7 18.8 3.2 11.8 4.7 17.7 2.8 21.6-5.4 10.8-35.3 4.5-41.2 0.8-2.7-1.7-5.8-4-5.8-4-1.8-1.3-3.3-2.5-4.3-3.3-3.7-2.9-6.4-4.9-7.3-5.7-0.5-0.4-1.1-0.8-1.6-1.2-0.3-0.2-0.6-0.4-1-0.6-1.3-0.7-2.6-1.3-4-1.7-1.8-0.7-3.7-1.3-5.7-1.6-1.5-0.3-1.8-0.1-9-0.2h-4.5c-1 0-2.2 0.1-6.3 0.6-4 0.5-6.2 0.7-8.1 1l-6.3 1.1s-9.4 2-17.3 3.1c-3.4 0.5-3.9 0.4-6.8 0.9-4.2 0.8-6.3 1.1-7.2 1.8-4.2 3.2 1.6 11.6-1.5 17.7-4.5 8.5-25.6 10.6-34 1.5-3.3-3.5-3.7-7.8-4.2-12.1-2.3-19.6-5.7-39-7.5-58.6-0.8-9-1.6-17.4-3.5-28.8-1-6.2-2.9-24-6.8-59.5-0.5-3.5-1-9.9 2.9-12.8z"/></g></g>
</svg>
