<svg clip-rule="evenodd" stroke-linejoin="round" stroke-miterlimit="1.414" viewBox="0 0 24 24" xml:space="preserve" xmlns="http://www.w3.org/2000/svg"><path d="M19 20H4a2 2 0 0 1-2-2V6c0-1.11.89-2 2-2h6l2 2h7c1.097 0 2 .903 2 2H4v10l2.14-8h17.07l-2.28 8.5c-.23.87-1.01 1.5-1.93 1.5z" fill="#757575"/><g fill="none" fill-rule="evenodd"><path d="m23.898 16.015-.756-2.325-1.497-4.609a.257.257 0 0 0-.49 0l-1.497 4.609h-4.973l-1.497-4.609a.257.257 0 0 0-.49 0l-1.497 4.609-.756 2.325a.515.515 0 0 0 .187.576l6.54 4.751 6.539-4.751a.515.515 0 0 0 .187-.576" fill="#fc6d26"/><path d="m17.172 21.342 2.486-7.652h-4.973z" fill="#e24329"/><path d="m17.172 21.342-2.487-7.652h-3.484z" fill="#fc6d26"/><path d="m11.2 13.69-.755 2.325a.515.515 0 0 0 .187.576l6.54 4.751z" fill="#fca326"/><path d="M11.2 13.69h3.485l-1.497-4.609a.257.257 0 0 0-.49 0z" fill="#e24329"/><path d="m17.172 21.342 2.486-7.652h3.484z" fill="#fc6d26"/><path d="m23.143 13.69.755 2.325a.515.515 0 0 1-.187.576l-6.54 4.751z" fill="#fca326"/><path d="M23.142 13.69h-3.484l1.497-4.609a.257.257 0 0 1 .49 0z" fill="#e24329"/></g></svg>