<?xml version="1.0" encoding="UTF-8"?>
<svg clip-rule="evenodd" fill-rule="evenodd" stroke-linejoin="round" stroke-miterlimit="1.414" version="1.1" viewBox="0 0 24 24" xml:space="preserve" xmlns="http://www.w3.org/2000/svg"><path d="M19 20H4a2 2 0 0 1-2-2V6c0-1.11.89-2 2-2h6l2 2h7c1.097 0 2 .903 2 2H4v10l2.14-8h17.07l-2.28 8.5c-.23.87-1.01 1.5-1.93 1.5z" fill="#546e7a" fill-rule="nonzero"/><path d="m17.722 8.536a6.1195 6.1195 0 0 0-6.1195 6.1195 6.1195 6.1195 0 0 0 6.1195 6.1185 6.1195 6.1195 0 0 0 6.1195-6.1195 5.9804 5.9804 0 0 0-0.37341-2.0742l-0.97924 0.97923c0.08557 0.36077 0.12836 0.72835 0.12836 1.095a4.8952 4.8952 0 0 1-4.8952 4.8952 4.8952 4.8952 0 0 1-4.8952-4.8952 4.8952 4.8952 0 0 1 4.8952-4.8952c0.36758 0 0.73418 0.043759 1.095 0.12933l0.98604-0.98507a6.1817 6.1817 0 0 0-2.081-0.36758m4.2836 0-2.4476 2.4476v0.91797l-1.5617 1.5598c-0.091408-0.030145-0.18282-0.030145-0.2752-0.030145a1.2233 1.2233 0 0 0-1.2233 1.2243 1.2233 1.2233 0 0 0 1.2233 1.2233 1.2233 1.2233 0 0 0 1.2243-1.2233c0-0.09238 0-0.18476-0.03112-0.27617l1.5607-1.5598h0.91797l2.4476-2.4476h-1.8359v-1.8359m-4.2836 2.4476a3.6719 3.6719 0 0 0-3.6709 3.6709 3.6719 3.6719 0 0 0 3.6709 3.6719 3.6719 3.6719 0 0 0 3.6719-3.6719h-1.2243a2.4476 2.4476 0 0 1-2.4476 2.4476 2.4476 2.4476 0 0 1-2.4476-2.4476 2.4476 2.4476 0 0 1 2.4476-2.4476z" fill="#cfd8dc" stroke-width=".97243"/></svg>
