<svg clip-rule="evenodd" stroke-linejoin="round" stroke-miterlimit="1.414" viewBox="0 0 24 24" xml:space="preserve" xmlns="http://www.w3.org/2000/svg"><path d="M10 4H4c-1.11 0-2 .89-2 2v12c0 1.097.903 2 2 2h16c1.097 0 2-.903 2-2V8a2 2 0 0 0-2-2h-8l-2-2z" fill="#757575"/><g fill="none" fill-rule="evenodd"><path d="m23.898 16.015-.755-2.325-1.498-4.609a.257.257 0 0 0-.49 0l-1.497 4.609h-4.972L13.188 9.08a.257.257 0 0 0-.49 0l-1.497 4.609-.755 2.325a.515.515 0 0 0 .187.576l6.539 4.75 6.54-4.75a.515.515 0 0 0 .186-.576" fill="#fc6d26"/><path d="m17.172 21.342 2.486-7.652h-4.972z" fill="#e24329"/><path d="m17.172 21.342-2.486-7.652H11.2z" fill="#fc6d26"/><path d="m11.201 13.69-.755 2.325a.515.515 0 0 0 .187.576l6.539 4.75z" fill="#fca326"/><path d="M11.201 13.69h3.485L13.188 9.08a.257.257 0 0 0-.49 0z" fill="#e24329"/><path d="m17.172 21.342 2.486-7.652h3.485z" fill="#fc6d26"/><path d="m23.143 13.69.756 2.325a.515.515 0 0 1-.187.576l-6.54 4.75z" fill="#fca326"/><path d="M23.143 13.69h-3.485l1.498-4.609a.257.257 0 0 1 .49 0z" fill="#e24329"/></g></svg>