<svg clip-rule="evenodd" stroke-linejoin="round" stroke-miterlimit="1.414" viewBox="0 0 24 24" xml:space="preserve" xmlns="http://www.w3.org/2000/svg"><path d="M19 20H4a2 2 0 0 1-2-2V6c0-1.11.89-2 2-2h6l2 2h7c1.097 0 2 .903 2 2H4v10l2.14-8h17.07l-2.28 8.5c-.23.87-1.01 1.5-1.93 1.5z" fill="#e57373" style="fill:#009688"/><g style="fill:#b2dfdb"><path d="m168.79 105.48-9.087 15.734-31.075-53.824L33.235 232.6h64.59c0 8.69 7.044 15.734 15.733 15.734H33.233a15.732 15.732 0 0 1-13.623-23.602l95.393-165.21a15.735 15.735 0 0 1 27.252 0z" fill="#00c58e" style="fill:#b2dfdb;stroke-width:.66379" transform="matrix(.05588 0 0 .05588 7.99 6.945)"/><path d="m237.65 224.74-59.777-103.52-9.087-15.734-9.086 15.734-59.77 103.52a15.734 15.734 0 0 0 13.623 23.602h110.45a15.734 15.734 0 0 0 13.63-23.602zm-124.1 7.867 55.234-95.652 55.221 95.652z" fill="#2f495e" style="fill:#b2dfdb;stroke-width:.66379" transform="matrix(.05588 0 0 .05588 7.99 6.945)"/><path d="M280.39 240.47a15.732 15.732 0 0 1-13.623 7.867h-42.758c8.69 0 15.734-7.044 15.734-15.734h26.991l-76.588-132.65-12.273 21.261-9.087-15.734 7.736-13.394a15.735 15.735 0 0 1 27.252 0l76.615 132.65a15.734 15.734 0 0 1 0 15.734z" fill="#108775" style="fill:#b2dfdb;stroke-width:.66379" transform="matrix(.05588 0 0 .05588 7.99 6.945)"/></g></svg>