<?xml version="1.0" encoding="UTF-8"?>
<svg clip-rule="evenodd" stroke-linejoin="round" stroke-miterlimit="1.414" version="1.1" viewBox="0 0 24 24" xml:space="preserve" xmlns="http://www.w3.org/2000/svg"><path d="M19 20H4a2 2 0 0 1-2-2V6c0-1.11.89-2 2-2h6l2 2h7c1.097 0 2 .903 2 2H4v10l2.14-8h17.07l-2.28 8.5c-.23.87-1.01 1.5-1.93 1.5z" fill="#ef5350"/><path d="m10.856 20.781h11.581v-1.2868h-11.581m11.581-7.0772h-1.2868v-1.9301h1.2868m0-1.2868h-10.294v6.4338a2.5735 2.5735 0 0 0 2.5735 2.5735h3.8603a2.5735 2.5735 0 0 0 2.5735-2.5735v-1.9301h1.2868a1.2868 1.2868 0 0 0 1.2868-1.2868v-1.9301a1.2868 1.2868 0 0 0-1.2868-1.2868z" fill="#ffcdd2" stroke-width=".64338"/></svg>
