<?xml version="1.0" encoding="UTF-8"?>
<svg clip-rule="evenodd" fill-rule="evenodd" stroke-linejoin="round" stroke-miterlimit="1.414" version="1.1" viewBox="0 0 24 24" xml:space="preserve" xmlns="http://www.w3.org/2000/svg"><path d="M10 4H4c-1.11 0-2 .89-2 2v12c0 1.097.903 2 2 2h16c1.097 0 2-.903 2-2V8a2 2 0 0 0-2-2h-8l-2-2z" fill="#546e7a" fill-rule="nonzero"/><path d="m17.721 8.5364a6.1193 6.1193 0 0 0-6.1193 6.1193 6.1193 6.1193 0 0 0 6.1193 6.1183 6.1193 6.1193 0 0 0 6.1193-6.1193 5.9802 5.9802 0 0 0-0.3734-2.0741l-0.9792 0.9792c0.08557 0.36076 0.12836 0.72832 0.12836 1.0949a4.895 4.895 0 0 1-4.895 4.895 4.895 4.895 0 0 1-4.895-4.895 4.895 4.895 0 0 1 4.895-4.895c0.36757 0 0.73416 0.043758 1.0949 0.12933l0.98601-0.98504a6.1815 6.1815 0 0 0-2.0809-0.36757m4.2834 0-2.4475 2.4475v0.91794l-1.5617 1.5597c-0.0914-0.03015-0.18281-0.03015-0.27519-0.03015a1.2233 1.2233 0 0 0-1.2233 1.2242 1.2233 1.2233 0 0 0 1.2233 1.2233 1.2233 1.2233 0 0 0 1.2242-1.2233c0-0.09238 0-0.18476-0.03112-0.27616l1.5607-1.5597h0.91794l2.4475-2.4475h-1.8359v-1.8359m-4.2834 2.4475a3.6718 3.6718 0 0 0-3.6708 3.6708 3.6718 3.6718 0 0 0 3.6708 3.6718 3.6718 3.6718 0 0 0 3.6718-3.6718h-1.2242a2.4475 2.4475 0 0 1-2.4475 2.4475 2.4475 2.4475 0 0 1-2.4475-2.4475 2.4475 2.4475 0 0 1 2.4475-2.4475z" fill="#cfd8dc" stroke-width=".9724"/></svg>
