<?xml version="1.0" encoding="UTF-8"?>
<svg clip-rule="evenodd" stroke-linejoin="round" stroke-miterlimit="1.414" version="1.1" viewBox="0 0 24 24" xml:space="preserve" xmlns="http://www.w3.org/2000/svg"><path d="M19 20H4a2 2 0 0 1-2-2V6c0-1.11.89-2 2-2h6l2 2h7c1.097 0 2 .903 2 2H4v10l2.14-8h17.07l-2.28 8.5c-.23.87-1.01 1.5-1.93 1.5z" fill="#ff5252"/><path d="m18.034 9.132 5.692 2.0283-0.86282 7.5336-4.8292 2.6722-4.8292-2.6722-0.86282-7.5336 5.692-2.0283m0 1.3522-3.5607 7.9843h1.3264l0.71472-1.79h3.0263l0.71472 1.79h1.32l-3.5414-7.9843m1.0431 5.0868h-2.0798l1.0367-2.4919z" fill="#ffcdd2" stroke-width=".64389"/></svg>
