<?xml version="1.0" encoding="UTF-8"?>
<svg version="1.1" viewBox="0 0 24 24" xmlns="http://www.w3.org/2000/svg">
 <path d="M10 4H4c-1.11 0-2 .89-2 2v12c0 1.097.903 2 2 2h16c1.097 0 2-.903 2-2V8a2 2 0 00-2-2h-8l-2-2z" fill="#009688"/>
 <path d="m17.584 8.548a6.1097 6.1097 0 0 0-6.1133 6.1142 6.1097 6.1097 0 0 0 6.1142 6.1142 6.1106 6.1106 0 0 0 6.1142-6.1142c0-3.3792-2.7569-6.1142-6.1151-6.1142zm-2.8679 7.4262c0.20017 0.26659 0.46676 0.37759 0.84435 0.37759 0.17833 0 0.35666-0.02275 0.51225-0.08916 0.15468-0.06551 0.33301-0.15559 0.55501-0.28934l0.62234 0.88893a2.6522 2.6522 0 0 1-1.756 0.62325c-0.53408 0-0.97809-0.11191-1.3784-0.33392a2.2382 2.2382 0 0 1-0.88893-0.97718c-0.20017-0.42308-0.31117-0.91168-0.31117-1.4903 0-0.55501 0.111-1.0664 0.31026-1.4894 0.19107-0.42035 0.50042-0.77611 0.89166-1.0218 0.37668-0.24566 0.84344-0.35666 1.3557-0.35666 0.35575 0 0.68876 0.04458 0.95535 0.15558 0.30025 0.11646 0.57776 0.28206 0.82251 0.4895l-0.62234 0.84435a2.4375 2.4375 0 0 0-0.51134-0.28933 1.4294 1.4294 0 0 0-0.53318-0.08917c-0.75609 0-1.1337 0.57867-1.1337 1.756-0.02183 0.60142 0.08917 1.0236 0.26659 1.2902zm6.1142 1.3784c-0.222 0.68967-0.55501 1.201-1.0227 1.5786-0.46676 0.3785-1.09 0.57867-1.8679 0.64509l-0.15468-1.0445c0.51043-0.06733 0.88893-0.17833 1.1337-0.35666 0.08826-0.06551 0.26659-0.26659 0.26659-0.26659l-1.8452-5.9141h1.5331l1.0673 4.4246 1.1346-4.4246h1.4894z" fill="#b2dfdb" stroke-width=".90986"/>
</svg>
