<svg xmlns="http://www.w3.org/2000/svg" viewBox="0 0 500 500"><g fill="none" fill-rule="evenodd"><path d="m455.233 277.23-23.053-70.95-45.69-140.624c-2.35-7.235-12.586-7.235-14.937 0L325.86 206.279H174.135L128.443 65.655c-2.35-7.235-12.586-7.235-14.938 0l-45.69 140.624-23.052 70.952a15.706 15.706 0 0 0 5.705 17.56l199.525 144.966L449.52 294.792c5.504-4 7.808-11.09 5.705-17.561" fill="#fc6d26"/><path d="m250.001 439.76 75.862-233.482H174.138z" fill="#e24329"/><path d="M250.002 439.76 174.14 206.285H67.823z" fill="#fc6d26"/><path d="m67.818 206.282-23.054 70.952a15.705 15.705 0 0 0 5.706 17.56L249.996 439.76z" fill="#fca326"/><path d="M67.819 206.279h106.317L128.444 65.655c-2.35-7.236-12.587-7.236-14.937 0z" fill="#e24329"/><path d="m250.001 439.76 75.862-233.474H432.18z" fill="#fc6d26"/><path d="m432.185 206.282 23.054 70.952a15.705 15.705 0 0 1-5.706 17.56L250.007 439.76z" fill="#fca326"/><path d="M432.176 206.279H325.86l45.692-140.624c2.351-7.236 12.587-7.236 14.937 0z" fill="#e24329"/></g></svg>