<svg viewBox="0 0 40 40" xmlns="http://www.w3.org/2000/svg"><path d="m27.84 14.658-.013-.005c-.007-.003-.014-.006-.02-.012a.1.1 0 0 1-.026-.085l.704-4.304 3.302 3.302-3.434 1.461a.076.076 0 0 1-.03.005h-.014a.093.093 0 0 1-.018-.015 1.563 1.563 0 0 0-.451-.347zm4.79-.262 3.53 3.53c.733.734 1.1 1.1 1.234 1.525.02.063.036.125.049.19l-8.437-3.573a.663.663 0 0 0-.014-.005c-.033-.014-.073-.03-.073-.064 0-.035.04-.051.074-.065l.011-.004zm4.669 6.378c-.182.343-.538.698-1.139 1.3l-3.98 3.98-5.148-1.073-.027-.005c-.046-.008-.094-.016-.094-.057a1.554 1.554 0 0 0-.597-1.086c-.02-.021-.015-.054-.009-.084 0-.005 0-.01.002-.013l.968-5.944.004-.02c.005-.046.014-.098.055-.098a1.576 1.576 0 0 0 1.056-.606c.008-.01.014-.02.025-.025.029-.013.063 0 .093.013l8.79 3.718zm-6.034 6.194-6.545 6.546 1.12-6.886.002-.01a.13.13 0 0 1 .005-.026c.01-.022.033-.03.056-.04l.01-.004a1.685 1.685 0 0 0 .634-.471c.021-.026.048-.05.082-.055a.082.082 0 0 1 .026 0l4.609.947zm-7.93 7.93-.738.739-8.157-11.788a.386.386 0 0 0-.009-.013c-.013-.017-.026-.035-.024-.055.001-.014.01-.027.02-.038l.01-.012c.024-.036.045-.073.068-.112l.018-.032.003-.003c.013-.021.025-.042.046-.054.02-.01.046-.006.067-.001l9.036 1.863a.15.15 0 0 1 .07.03c.011.012.014.025.017.04a1.6 1.6 0 0 0 .936 1.07c.025.013.014.04.003.07a.217.217 0 0 0-.014.042l-1.353 8.255zm-1.542 1.541c-.544.538-.864.823-1.227.938a1.822 1.822 0 0 1-1.098 0c-.425-.135-.792-.5-1.525-1.235l-8.19-8.19 2.139-3.319a.137.137 0 0 1 .036-.043c.023-.016.056-.009.083 0a2.217 2.217 0 0 0 1.492-.075c.025-.01.05-.016.068.002a.173.173 0 0 1 .026.029l8.196 11.894zm-12.83-9.277-1.88-1.88 3.71-1.582a.077.077 0 0 1 .031-.007c.03 0 .05.031.066.06a2.65 2.65 0 0 0 .118.167l.012.015c.01.015.003.03-.007.045l-2.05 3.182zM6.251 24.45l-2.378-2.377c-.404-.405-.697-.698-.901-.95l7.228 1.499a.765.765 0 0 0 .027.005c.045.007.094.015.094.057 0 .045-.054.066-.1.084l-.02.009zm-3.695-4.55a1.822 1.822 0 0 1 .082-.45c.135-.425.501-.79 1.235-1.525l3.042-3.042a1981.5 1981.5 0 0 0 4.214 6.09c.024.033.052.07.024.097a2.528 2.528 0 0 0-.36.48.146.146 0 0 1-.046.057c-.012.008-.024.005-.038.002h-.002l-8.15-1.71zm5.174-5.831 4.09-4.09c.385.168 1.784.759 3.035 1.287.947.4 1.81.765 2.082.883.027.011.052.022.064.05.007.016.004.037 0 .054a1.824 1.824 0 0 0 .476 1.665c.028.028 0 .067-.023.1l-.013.02-4.154 6.433a.126.126 0 0 1-.039.045c-.022.014-.053.008-.078.001a2.071 2.071 0 0 0-.495-.067c-.149 0-.311.027-.475.057-.02.003-.036.006-.05-.004a.191.191 0 0 1-.041-.047zm4.916-4.917 5.296-5.296c.733-.733 1.1-1.1 1.525-1.234a1.822 1.822 0 0 1 1.098 0c.424.134.791.501 1.525 1.234l1.147 1.148-3.766 5.833a.141.141 0 0 1-.037.044c-.023.015-.055.009-.082 0a1.91 1.91 0 0 0-1.75.337c-.024.025-.06.01-.091-.003-.492-.214-4.317-1.83-4.865-2.063zm11.391-3.348 3.478 3.477-.838 5.19v.014a.123.123 0 0 1-.007.034c-.01.019-.028.022-.046.028a1.667 1.667 0 0 0-.499.248.14.14 0 0 0-.018.016c-.01.01-.02.02-.037.023a.104.104 0 0 1-.039-.007l-5.299-2.251-.01-.005c-.034-.013-.074-.03-.074-.064a2.002 2.002 0 0 0-.282-.834c-.026-.042-.054-.085-.032-.128zm-3.581 7.838 4.968 2.104c.027.013.057.025.069.053a.097.097 0 0 1 0 .052 1.235 1.235 0 0 0-.028.24v.139c0 .035-.035.05-.068.063l-.01.004a6710.99 6710.99 0 0 1-11.064 4.711c-.015 0-.032 0-.047-.015-.028-.028 0-.066.024-.1a.692.692 0 0 0 .013-.019l4.082-6.32.008-.012c.023-.038.05-.08.094-.08l.041.006c.093.012.175.024.258.024.62 0 1.193-.301 1.54-.817a.146.146 0 0 1 .03-.036c.025-.018.061-.01.09.003zm-5.689 8.366 11.185-4.77s.017 0 .032.016c.061.06.113.102.163.14l.025.016c.022.012.045.027.047.05 0 .01 0 .015-.002.023l-.958 5.886-.004.024c-.006.045-.012.097-.055.097a1.575 1.575 0 0 0-1.25.772l-.005.007c-.013.02-.025.04-.046.052-.019.009-.043.005-.064 0l-8.92-1.84c-.008-.001-.138-.472-.148-.473z" style="fill:#00bfa5;stroke-width:.91081"/></svg>