<svg fill="none" viewBox="0 0 300 300" xmlns="http://www.w3.org/2000/svg"><path d="m227.92 82.074-13.689 23.704-46.815-81.086-143.71 248.89h97.304c0 13.091 10.613 23.704 23.704 23.704H23.704A23.702 23.702 0 0 1 3.18 261.73L146.89 12.84a23.705 23.705 0 0 1 41.056 0z" fill="#00c58e" style="fill:#00bfa5" transform="translate(17.497 51.005) scale(.66379)"/><path d="m331.66 261.73-90.054-155.95-13.689-23.704-13.689 23.704-90.044 155.95a23.704 23.704 0 0 0 20.524 35.556h166.4a23.703 23.703 0 0 0 20.533-35.556zm-186.95 11.852 83.21-144.1 83.19 144.1h-166.4z" fill="#2f495e" style="fill:#37474f" transform="translate(17.497 51.005) scale(.66379)"/><path d="M396.05 285.43a23.7 23.7 0 0 1-20.523 11.852h-64.415c13.091 0 23.704-10.612 23.704-23.704h40.662l-115.38-199.83-18.489 32.03-13.689-23.704 11.654-20.178a23.705 23.705 0 0 1 41.056 0l115.42 199.83a23.704 23.704 0 0 1 0 23.704z" fill="#108775" style="fill:#26a69a" transform="translate(17.497 51.005) scale(.66379)"/></svg>