<?xml version="1.0" encoding="UTF-8"?>
<svg fill="none" version="1.1" viewBox="0 0 256 256" xmlns="http://www.w3.org/2000/svg">
 <g transform="translate(-8.8242e-5 .00011806)">
  <path d="m165.09 99.183c0 5.3447-2.123 10.471-5.902 14.25s-8.905 5.902-14.25 5.902c-5.344 0-10.47-2.123-14.249-5.902s-5.902-8.905-5.902-14.25c0-5.3445 2.123-10.47 5.902-14.249s8.905-5.9023 14.249-5.9023c5.345 0 10.471 2.1231 14.25 5.9023s5.902 8.9048 5.902 14.249z" fill="#ffca28"/>
  <path d="m111.04 136.74c-11.13 0-20.152 9.022-20.152 20.151 0 11.13 9.0221 20.152 20.152 20.152 11.129 0 20.152-9.022 20.152-20.152 0-11.129-9.023-20.151-20.152-20.151z" fill="#26c6da"/>
  <path d="m186.7 163.76c-8.099 5.236-17.11 8.902-26.564 10.809 2.74-7.811 3.649-16.147 2.657-24.365 8.015-2.802 15.258-7.454 21.14-13.577 5.882-6.124 10.239-13.547 12.716-21.669 2.478-8.121 3.007-16.712 1.545-25.076-1.462-8.3642-4.874-16.266-9.961-23.065-5.086-6.7992-11.703-12.304-19.313-16.069-7.611-3.7646-16.002-5.683-24.493-5.5994-8.491 0.0835-16.842 2.1665-24.377 6.0801-7.536 3.9137-14.043 9.5478-18.994 16.446-10.254 1.1537-20.231 4.0664-29.495 8.6103 3.662-11.816 10.119-22.574 18.823-31.363 8.7043-8.7893 19.399-15.35 31.179-19.127 11.779-3.7768 24.295-4.6578 36.488-2.5684 12.192 2.0894 23.7 7.0875 33.55 14.571 9.85 7.4832 17.75 17.231 23.031 28.417s7.788 23.48 7.307 35.841c-0.481 12.361-3.935 24.423-10.07 35.165-6.134 10.741-14.768 19.846-25.169 26.541zm-114.22-73.462 18.869 2.2899c0.428-3.6439 1.226-7.2347 2.3815-10.717-7.4637 1.7352-14.626 4.5756-21.251 8.4271z" clip-rule="evenodd" fill="#ffca28" fill-rule="evenodd"/>
  <path d="m69.182 92.314c8.1475-5.2892 17.223-8.9877 26.747-10.9-2.8809 7.8099-3.9154 16.18-3.0228 24.457-7.9877 2.842-15.195 7.523-21.039 13.665s-10.161 13.573-12.602 21.693c-2.441 8.119-2.9374 16.698-1.4493 25.045 1.4882 8.346 4.9192 16.226 10.016 23.001s11.716 12.257 19.322 16.001c7.6066 3.744 15.988 5.646 24.466 5.552 8.477-0.094 16.814-2.182 24.336-6.094 7.521-3.911 14.017-9.538 18.962-16.425 10.248-1.124 20.226-4.006 29.495-8.518-3.671 11.803-10.132 22.548-18.836 31.325s-19.394 15.328-31.166 19.098c-11.772 3.771-24.278 4.649-36.462 2.562-12.183-2.088-23.684-7.08-33.53-14.554-9.8454-7.474-17.745-17.21-23.031-28.383-5.2854-11.174-7.801-23.457-7.3337-35.809s3.9037-24.41 10.018-35.153c6.1146-10.742 14.727-19.854 25.109-26.562zm114.22 73.462-0.366 0.183z" clip-rule="evenodd" fill="#26c6da" fill-rule="evenodd"/>
 </g>
</svg>
