<svg width="80" height="20" viewBox="0 0 80 20" fill="none" xmlns="http://www.w3.org/2000/svg">
<path d="M9.63975 0.619629C13.422 0.619629 16.4886 8.7498 16.4886 12.5329C16.4886 14.3494 15.767 16.0916 14.4825 17.3761C13.198 18.6606 11.4559 19.3822 9.63933 19.3822C7.82279 19.3822 6.08064 18.6606 4.79615 17.3761C3.51166 16.0916 2.79004 14.3494 2.79004 12.5329C2.79004 8.7498 5.855 0.619629 9.63975 0.619629Z" fill="#FCFBFA"/>
<path d="M18.324 7.18164L15.5298 8.16719C15.5298 8.16719 15.9622 9.48182 15.9663 9.49181C15.9705 9.50181 18.7497 9.13358 18.7497 9.13358L18.324 7.18164Z" fill="#252526"/>
<path d="M0.954664 7.18164L3.74886 8.16719C3.74886 8.16719 3.31649 9.48182 3.31232 9.49181C3.30816 9.50181 0.529785 9.13275 0.529785 9.13275L0.954664 7.18164Z" fill="#252526"/>
<path d="M6.76317 6.94848C6.97377 6.9436 7.179 7.01518 7.34089 7.14996C7.50279 7.28474 7.61038 7.47361 7.64375 7.6816C7.73237 8.15757 7.79081 8.63867 7.8187 9.12202C7.82131 9.25737 7.80902 9.39259 7.78204 9.52524C7.74705 9.17701 7.69873 8.84543 7.64458 8.55718C7.61121 8.34919 7.50362 8.16032 7.34173 8.02554C7.17984 7.89076 6.9746 7.81918 6.764 7.82406C5.71381 7.8344 4.66545 7.914 3.62573 8.06232C3.72404 7.75658 3.82984 7.45 3.94314 7.14592C4.87839 7.02407 5.82007 6.95814 6.76317 6.94848V6.94848Z" fill="#E0E0E0"/>
<path d="M16.4751 12.2293C14.0083 12.1019 11.9014 11.3129 11.4257 11.0305C11.055 10.8531 10.5818 10.4773 10.446 9.5376C10.3535 10.5723 10.551 11.5162 11.5199 11.9819C11.5915 12.0252 13.4527 12.9458 16.456 13.1041C16.4718 12.9158 16.4801 12.7259 16.4801 12.5334C16.4818 12.4343 16.4793 12.3326 16.4751 12.2293Z" fill="#E0E0E0"/>
<path d="M2.80974 12.2293C5.27654 12.1019 7.38344 11.3129 7.85913 11.0305C8.22986 10.8531 8.70306 10.4773 8.83885 9.5376C8.92966 10.5731 8.73472 11.5162 7.76249 11.9819C7.69085 12.0252 5.82971 12.9458 2.82641 13.1041C2.81058 12.9158 2.80225 12.7259 2.80225 12.5334C2.80308 12.4343 2.80558 12.3326 2.80974 12.2293Z" fill="#E0E0E0"/>
<path d="M12.5066 6.94848C12.296 6.9436 12.0907 7.01518 11.9288 7.14996C11.7669 7.28474 11.6594 7.47361 11.626 7.6816C11.5374 8.15757 11.4789 8.63867 11.451 9.12202C11.4484 9.25737 11.4607 9.39259 11.4877 9.52524C11.5227 9.17701 11.571 8.84543 11.6251 8.55718C11.6585 8.34919 11.7661 8.16032 11.928 8.02554C12.0899 7.89076 12.2951 7.81918 12.5057 7.82406C13.5559 7.8344 14.6043 7.914 15.644 8.06232C15.5457 7.75658 15.4399 7.45 15.3266 7.14592C14.3913 7.02407 13.4497 6.95814 12.5066 6.94848V6.94848Z" fill="#E0E0E0"/>
<path d="M3.64787 6.20656C4.32018 4.57536 5.12745 3.1641 5.98053 2.12439C7.1427 0.714796 8.37318 0 9.63699 0C10.9008 0 12.1338 0.718128 13.2951 2.12689C14.1515 3.16493 14.9613 4.57619 15.6278 6.20906L15.6603 6.29237L15.577 6.2807C15.3395 6.24905 15.1462 6.22655 14.9105 6.19739H14.8813L14.8697 6.17074C14.1132 4.40457 12.8219 2.09773 11.1532 1.13384C10.6962 0.855651 10.1736 0.703849 9.63865 0.693968C9.10375 0.703849 8.58107 0.855651 8.12409 1.13384C6.4579 2.0969 5.1691 4.39541 4.40682 6.17074L4.39516 6.19739H4.366C4.12856 6.22239 3.93529 6.24571 3.69952 6.2807L3.61621 6.29237L3.64787 6.20656Z" fill="#56555C"/>
<path d="M16.5543 11.3756C16.3685 11.3706 16.181 11.3631 15.9969 11.3523H15.9394L15.9319 11.2948C15.7653 9.996 15.3921 8.4756 14.8739 7.01435L14.8364 6.90771L14.9489 6.92271C15.1605 6.95104 15.3654 6.98269 15.5654 7.01602L15.6062 7.02268L15.6195 7.06184C16.1194 8.52059 16.4735 10.026 16.6251 11.3006L16.6342 11.3839L16.5543 11.3756Z" fill="#56555C"/>
<path d="M15.9429 8.08494C15.8429 7.74253 15.7346 7.40013 15.6188 7.0594L15.6055 7.02024L15.5647 7.01358C15.368 6.98025 15.1606 6.94859 14.9482 6.92027L14.8357 6.90527L14.8732 7.01191C14.9881 7.33598 15.0956 7.66256 15.1956 7.98996C15.5555 8.03079 15.7596 8.05911 15.9429 8.08494Z" fill="#252526"/>
<path d="M2.70073 11.2684C2.85235 9.99376 3.20975 8.48836 3.70627 7.02961L3.7196 6.99046L3.76043 6.98379C3.95704 6.95047 4.16448 6.91881 4.37692 6.89048L4.48938 6.87549L4.45189 6.98212C3.93454 8.44337 3.55882 9.96294 3.39386 11.2626L3.38637 11.32H3.32888C3.14394 11.3309 2.95649 11.3384 2.77154 11.3434H2.68823L2.70073 11.2684Z" fill="#56555C"/>
<path d="M3.76006 6.98379L3.71924 6.99046L3.70591 7.02961C3.59011 7.37035 3.48181 7.71441 3.38184 8.05682C3.72924 8.01266 3.83004 8.01766 4.12079 7.98684C4.22326 7.6536 4.33323 7.31453 4.45403 6.98212L4.49152 6.87549L4.37905 6.89048C4.16411 6.91964 3.95667 6.95047 3.76006 6.98379Z" fill="#252526"/>
<path d="M9.63951 19.9978C8.14 19.9982 6.6751 19.5472 5.43544 18.7035C4.19579 17.8598 3.23879 16.6625 2.689 15.2675C2.31183 14.3 2.13799 13.2651 2.17831 12.2275V12.1808H2.22496C2.46823 12.175 2.63485 12.1683 2.80813 12.1592H2.86228V12.2133C2.81732 13.1614 2.97141 14.1084 3.31465 14.9934C3.7276 16.0554 4.40151 16.9962 5.27414 17.729C6.14676 18.4618 7.18997 18.9629 8.3074 19.1859C9.42484 19.409 10.5805 19.3469 11.6676 19.0054C12.7547 18.6639 13.7382 18.0539 14.5273 17.2319C15.1477 16.5885 15.6334 15.8277 15.956 14.9942C16.2993 14.1093 16.4534 13.1623 16.4084 12.2142V12.16H16.4626C16.705 12.1725 16.8716 12.1775 17.0457 12.1817H17.0924V12.2283C17.1323 13.2651 16.9585 14.2991 16.5817 15.2658C16.0333 16.6617 15.0769 17.8599 13.8374 18.7041C12.5978 19.5484 11.1326 19.9995 9.63285 19.9986L9.63951 19.9978Z" fill="#56555C"/>
<path d="M2.88495 13.1037C2.86067 12.8061 2.85455 12.5073 2.86662 12.2089V12.1548H2.81247C2.63752 12.1639 2.4709 12.1706 2.2293 12.1764H2.18265V12.2231C2.17238 12.5223 2.17905 12.8219 2.20264 13.1203H2.22514C2.45007 13.1203 2.67001 13.1103 2.87912 13.1003L2.88495 13.1037Z" fill="#252526"/>
<path d="M17.096 12.1808H17.0493C16.8727 12.1808 16.7061 12.1717 16.4662 12.1592H16.412V12.2133C16.424 12.5089 16.4182 12.8049 16.3945 13.0997L17.0777 13.1289C17.1013 12.8304 17.108 12.5309 17.0977 12.2317L17.096 12.1808Z" fill="#252526"/>
<path d="M17.4814 12.298C16.0543 12.309 14.6319 12.1323 13.2509 11.7723C12.6565 11.6183 12.0771 11.4111 11.5197 11.1533L11.5064 11.1475C10.3401 10.5901 10.2976 9.47378 10.4059 8.45491C10.4334 8.19748 10.3392 7.85758 10.0677 7.67763C9.94113 7.59317 9.79241 7.54809 9.64028 7.54809C9.48815 7.54809 9.33943 7.59317 9.2129 7.67763C8.94131 7.85758 8.84717 8.19748 8.87466 8.45408C8.98297 9.47378 8.93715 10.5918 7.77415 11.1491L7.76082 11.1558C7.20419 11.4126 6.62565 11.6189 6.03214 11.7723C4.65169 12.1322 3.2299 12.3089 1.80335 12.298H1.79752C1.51108 12.2982 1.23273 12.203 1.00644 12.0274C0.78014 11.8518 0.618793 11.6058 0.547878 11.3283C0.329607 10.4743 0.0346912 9.20136 0.000534321 7.99587C-0.0065077 7.76194 0.056192 7.5312 0.180658 7.33301C0.305123 7.13481 0.485729 6.97812 0.699501 6.88286C2.30571 6.16806 5.55561 5.90564 6.94188 5.9248C7.18129 5.92317 7.4186 5.96951 7.63981 6.06109C7.86102 6.15266 8.06164 6.28761 8.22985 6.45798C8.6735 6.2501 9.15623 6.13879 9.64611 6.13141C10.136 6.13881 10.6187 6.25012 11.0624 6.45798C11.2303 6.28731 11.4309 6.15215 11.6522 6.06056C11.8735 5.96896 12.1109 5.92279 12.3503 5.9248C13.1834 5.91314 16.7616 6.06726 18.5927 6.88369C18.8073 6.97883 18.9886 7.13577 19.1136 7.33447C19.2385 7.53316 19.3014 7.7646 19.2942 7.99921C19.26 9.20386 18.9609 10.4743 18.7468 11.3316C18.6759 11.6091 18.5146 11.8551 18.2883 12.0307C18.062 12.2063 17.7836 12.3015 17.4972 12.3013L17.4814 12.298ZM12.5195 6.99783C12.3204 6.99324 12.1264 7.0608 11.9733 7.18804C11.8202 7.31528 11.7183 7.49362 11.6864 7.69013C11.5981 8.16391 11.5397 8.64278 11.5114 9.12388C11.5047 9.67373 11.7022 10.0503 12.0946 10.2427C13.5633 10.8975 15.2703 11.2216 17.3131 11.2316C17.3893 11.2312 17.4632 11.2057 17.5235 11.159C17.5837 11.1123 17.6269 11.0471 17.6463 10.9734C17.8404 10.2144 18.102 9.0864 18.132 8.04919C18.1337 8.00065 18.1207 7.95273 18.0949 7.9116C18.0691 7.87048 18.0315 7.83802 17.9871 7.81842C16.5891 7.19527 13.6025 6.98116 12.5195 6.99783ZM1.29433 7.82009C1.25032 7.83971 1.21312 7.87196 1.18746 7.91275C1.1618 7.95353 1.14884 8.00102 1.15021 8.04919C1.1802 9.0839 1.44179 10.2152 1.6359 10.9734C1.65506 11.0472 1.69817 11.1126 1.75847 11.1593C1.81876 11.2061 1.89285 11.2315 1.96914 11.2316C4.01355 11.2216 5.71807 10.8984 7.19181 10.2419C7.58503 10.0503 7.78164 9.67289 7.77498 9.12139C7.74824 8.64118 7.6912 8.16314 7.60419 7.69013C7.57227 7.49362 7.47035 7.31528 7.31723 7.18804C7.16411 7.0608 6.97013 6.99324 6.7711 6.99783C6.13128 6.98783 2.87221 7.11696 1.29433 7.82009Z" fill="#252526"/>
<path d="M28.8022 11.4651C28.7269 11.7327 28.6081 11.986 28.4506 12.2149C28.2911 12.4492 28.0941 12.6555 27.8674 12.8256C27.6224 13.0072 27.3495 13.1479 27.0593 13.2421C26.7305 13.3481 26.3867 13.4001 26.0413 13.3963C25.6327 13.3983 25.2271 13.3251 24.845 13.1805C24.4715 13.0398 24.1311 12.8233 23.8453 12.5448C23.5496 12.2538 23.3166 11.9053 23.1605 11.521C22.9867 11.0856 22.9018 10.62 22.9105 10.1513C22.9052 9.69896 22.9902 9.25004 23.1605 8.83089C23.3121 8.45555 23.5363 8.11383 23.8203 7.82535C24.0901 7.54925 24.4113 7.32851 24.7658 7.17553C25.121 7.0247 25.503 6.94706 25.8888 6.94727C26.833 6.94727 27.5692 7.22691 28.0974 7.78619C28.6256 8.34548 28.8888 9.11442 28.8871 10.093C28.8871 10.2086 28.883 10.3177 28.8747 10.4204C28.8663 10.5232 28.8622 10.5829 28.8622 10.5996H24.5217C24.5282 10.7907 24.5766 10.9781 24.6634 11.1486C24.747 11.3136 24.8599 11.4621 24.9966 11.5868C25.1354 11.7122 25.2965 11.8105 25.4715 11.8767C25.6576 11.9479 25.8554 11.9835 26.0546 11.9817C26.4434 11.9817 26.7455 11.8953 26.961 11.7226C27.179 11.5496 27.3436 11.3186 27.4359 11.0561L28.8022 11.4651ZM27.2726 9.47904C27.2641 9.32914 27.2329 9.1814 27.1801 9.04083C27.1257 8.89668 27.0404 8.76617 26.9302 8.65844C26.8106 8.54143 26.669 8.44914 26.5137 8.38685C26.3231 8.31294 26.1198 8.27727 25.9155 8.28188C25.7207 8.27809 25.5273 8.31586 25.3482 8.39269C25.1932 8.46134 25.0521 8.5576 24.9316 8.67677C24.8203 8.78663 24.7304 8.91632 24.6667 9.05916C24.6071 9.19063 24.5716 9.33171 24.5617 9.47571L27.2726 9.47904Z" fill="#252526"/>
<path d="M31.0971 13.1404C31.1459 13.4615 31.3078 13.7546 31.5537 13.9669C31.8003 14.1807 32.121 14.2876 32.5159 14.2876C33.0341 14.2876 33.4328 14.154 33.7122 13.8869C33.9916 13.6198 34.1304 13.1902 34.1288 12.5981V12.1541C33.9742 12.3798 33.7665 12.5641 33.5239 12.6906C33.2462 12.8511 32.8852 12.9313 32.4409 12.9313C32.0553 12.9351 31.6731 12.8596 31.3179 12.7097C30.9806 12.5676 30.6761 12.3578 30.4231 12.0932C30.168 11.8235 29.9669 11.5073 29.8308 11.1618C29.545 10.4156 29.5427 9.59042 29.8241 8.8425C29.9587 8.49462 30.1564 8.17461 30.4073 7.89861C30.656 7.62586 30.9583 7.40746 31.2954 7.25712C31.6565 7.09734 32.0477 7.01721 32.4426 7.02219C32.9274 7.02219 33.3098 7.10856 33.5897 7.28128C33.8316 7.41455 34.033 7.61053 34.1729 7.84862V7.13299H35.7558V12.5481C35.7574 12.9559 35.697 13.3615 35.5767 13.7511C35.4617 14.1346 35.2623 14.4875 34.9932 14.7839C34.724 15.0803 34.392 15.3127 34.0213 15.4639C33.5596 15.6517 33.0641 15.7419 32.5659 15.7289C32.1781 15.7338 31.7922 15.6732 31.4245 15.5498C31.1015 15.4402 30.7991 15.2775 30.5298 15.0682C30.2819 14.8747 30.0727 14.6362 29.9133 14.3651C29.7612 14.1094 29.6607 13.8264 29.6175 13.532L31.0971 13.1404ZM32.7258 11.5242C32.9172 11.5312 33.1079 11.4976 33.2855 11.4259C33.4631 11.3541 33.6235 11.2457 33.7564 11.1077C34.0235 10.83 34.1571 10.4557 34.1571 9.98468C34.1571 9.5137 34.0182 9.14159 33.7405 8.86833C33.6089 8.73409 33.4514 8.62796 33.2775 8.55636C33.1037 8.48476 32.9171 8.44919 32.7292 8.45178C32.5329 8.45003 32.3381 8.48565 32.1551 8.55675C31.9807 8.62522 31.8231 8.73034 31.6928 8.865C31.5583 9.0051 31.4535 9.17085 31.3845 9.35236C31.3085 9.55322 31.2709 9.76659 31.2737 9.98135C31.2737 10.4584 31.4095 10.8347 31.6811 11.1102C31.8175 11.2472 31.9806 11.3547 32.1604 11.426C32.3401 11.4972 32.5326 11.5307 32.7258 11.5242Z" fill="#252526"/>
<path d="M37.997 13.1403C38.0464 13.4605 38.2082 13.7526 38.4535 13.9642C38.7001 14.178 39.0209 14.285 39.4158 14.285C39.934 14.285 40.3327 14.1514 40.6121 13.8842C40.8915 13.6171 41.0303 13.1875 41.0286 12.5954V12.1514C40.8755 12.3773 40.6693 12.5621 40.428 12.6896C40.1503 12.8501 39.7893 12.9303 39.345 12.9303C38.9594 12.9341 38.5772 12.8586 38.2219 12.7087C37.8847 12.5666 37.5802 12.3568 37.3272 12.0922C37.072 11.8225 36.871 11.5063 36.7349 11.1608C36.4491 10.4146 36.4467 9.58942 36.7282 8.84151C36.8628 8.49362 37.0605 8.17361 37.3114 7.89761C37.56 7.62486 37.8624 7.40646 38.1995 7.25613C38.56 7.09658 38.9507 7.01646 39.345 7.02119C39.8298 7.02119 40.2122 7.10756 40.4921 7.28029C40.734 7.41355 40.9354 7.60954 41.0753 7.84762V7.13283H42.6582V12.5479C42.6598 12.9557 42.5994 13.3613 42.4791 13.7509C42.3638 14.1348 42.1639 14.4879 41.8941 14.7843C41.6244 15.0807 41.2916 15.3129 40.9203 15.4638C40.4587 15.6515 39.9631 15.7417 39.4649 15.7287C39.0771 15.7336 38.6912 15.6731 38.3236 15.5496C38.0008 15.4411 37.6984 15.2795 37.4288 15.0714C37.1809 14.8779 36.9718 14.6393 36.8124 14.3683C36.6603 14.1126 36.5598 13.8295 36.5166 13.5352L37.997 13.1403ZM39.6257 11.5241C39.8171 11.531 40.0078 11.4975 40.1854 11.4257C40.363 11.3539 40.5234 11.2455 40.6563 11.1075C40.9234 10.8298 41.057 10.4555 41.057 9.98451C41.057 9.51354 40.9181 9.14142 40.6404 8.86817C40.5088 8.73393 40.3513 8.6278 40.1774 8.5562C40.0036 8.4846 39.817 8.44902 39.629 8.45162C39.4328 8.44986 39.238 8.48548 39.055 8.55659C38.8806 8.62506 38.723 8.73017 38.5927 8.86483C38.4582 9.00493 38.3534 9.17069 38.2844 9.35219C38.2084 9.55306 38.1708 9.76643 38.1736 9.98118C38.1736 10.4583 38.3094 10.8345 38.581 11.11C38.7173 11.247 38.8803 11.3544 39.0599 11.4256C39.2395 11.4969 39.4318 11.5304 39.6249 11.5241H39.6257Z" fill="#252526"/>
<path d="M45.0935 13.202H43.6248V4.26953H45.0935V7.63773C45.29 7.39956 45.55 7.22192 45.8433 7.12538C46.1289 7.02582 46.4289 6.97376 46.7314 6.97126C47.0763 6.96316 47.4191 7.02848 47.7369 7.16287C48.0061 7.27997 48.2461 7.4549 48.44 7.67522C48.6312 7.89795 48.7732 8.15857 48.8566 8.44001C48.9483 8.7442 48.994 9.06037 48.9924 9.37807V13.2028H47.3529V9.66216C47.3639 9.35276 47.2702 9.04868 47.0871 8.79907C46.9105 8.56858 46.6247 8.45333 46.2298 8.45333C45.8844 8.45333 45.6131 8.56636 45.4159 8.7924C45.2142 9.02804 45.1003 9.32623 45.0935 9.63633V13.202Z" fill="#252526"/>
<path d="M55.566 11.4655C55.4907 11.733 55.372 11.9863 55.2144 12.2153C55.0549 12.4495 54.8579 12.6558 54.6313 12.8259C54.3862 13.0076 54.1133 13.1482 53.8232 13.2425C53.4943 13.3484 53.1506 13.4005 52.8051 13.3966C52.3965 13.3986 51.991 13.3255 51.6088 13.1808C51.2353 13.0401 50.8949 12.8237 50.6091 12.5452C50.3127 12.2513 50.0799 11.8997 49.9251 11.5121C49.7514 11.0768 49.6664 10.6112 49.6752 10.1425C49.6698 9.69014 49.7548 9.24123 49.9251 8.82207C50.0767 8.44673 50.3009 8.10501 50.5849 7.81653C50.8587 7.54225 51.1837 7.32431 51.5413 7.17505C51.8965 7.02421 52.2784 6.94658 52.6643 6.94678C53.6085 6.94678 54.3447 7.22642 54.8729 7.7857C55.401 8.34499 55.6643 9.11394 55.6626 10.0925C55.6626 10.2081 55.6585 10.3172 55.6501 10.42C55.6418 10.5227 55.6376 10.5824 55.6376 10.5991H51.2847C51.2912 10.7902 51.3396 10.9776 51.4263 11.1481C51.5099 11.3131 51.6229 11.4616 51.7596 11.5863C51.8984 11.7117 52.0595 11.81 52.2344 11.8762C52.4205 11.9474 52.6184 11.983 52.8176 11.9812C53.2064 11.9812 53.5085 11.8948 53.724 11.7221C53.942 11.5491 54.1066 11.3181 54.1989 11.0556L55.566 11.4655ZM54.0364 9.47939C54.0279 9.32949 53.9967 9.18174 53.944 9.04118C53.8895 8.89702 53.8042 8.76651 53.694 8.65879C53.5744 8.54177 53.4328 8.44948 53.2775 8.3872C53.0869 8.31329 52.8837 8.27762 52.6793 8.28223C52.4845 8.27843 52.2911 8.3162 52.112 8.39303C51.957 8.46168 51.8159 8.55794 51.6954 8.67712C51.5841 8.78698 51.4942 8.91666 51.4305 9.05951C51.3709 9.19098 51.3354 9.33205 51.3255 9.47605L54.0364 9.47939Z" fill="#252526"/>
<path d="M56.2979 11.549C56.2917 11.3117 56.3358 11.0759 56.4273 10.8569C56.5187 10.6379 56.6555 10.4408 56.8286 10.2785C56.9955 10.1208 57.1901 9.99536 57.4026 9.90859C57.6307 9.81529 57.8689 9.74903 58.1124 9.71114L59.6053 9.48871C59.7781 9.46427 59.8972 9.4129 59.9627 9.33458C60.0285 9.25727 60.0637 9.15863 60.0619 9.05716C60.0624 8.95217 60.0404 8.84828 59.9973 8.75255C59.9541 8.65682 59.8909 8.57148 59.8119 8.50232C59.6453 8.34626 59.3882 8.26822 59.0405 8.26822C58.6784 8.26822 58.4007 8.36681 58.2074 8.56397C58.0205 8.74844 57.9048 8.99308 57.8808 9.25461L56.4237 8.94636C56.4519 8.69599 56.527 8.45318 56.6453 8.23073C56.7725 7.9873 56.944 7.76975 57.151 7.58925C57.3843 7.38879 57.6518 7.23215 57.9408 7.12688C58.2879 7.00188 58.6549 6.94118 59.0238 6.94777C59.4391 6.93783 59.8528 7.00274 60.2451 7.13938C60.5516 7.24761 60.8313 7.42002 61.0657 7.64507C61.2729 7.85087 61.4293 8.10219 61.5223 8.37902C61.6172 8.66115 61.665 8.95696 61.6639 9.25461V12.2404C61.6639 12.407 61.6722 12.5817 61.6889 12.7644C61.7056 12.9472 61.7219 13.0932 61.7381 13.2026H60.2335C60.2129 13.0905 60.1985 12.9773 60.1902 12.8636C60.1779 12.7197 60.1718 12.5903 60.1718 12.4754C59.9966 12.7318 59.7671 12.9465 59.4995 13.1043C59.2074 13.2848 58.8353 13.3754 58.3832 13.3759C58.0861 13.3802 57.7909 13.3279 57.5134 13.2218C57.2699 13.1285 57.0461 12.9903 56.8536 12.8144C56.6755 12.6513 56.5336 12.4527 56.4371 12.2313C56.3441 12.0159 56.2968 11.7835 56.2979 11.549V11.549ZM58.7281 12.1538C58.897 12.1544 59.0652 12.1317 59.2279 12.0863C59.3861 12.0423 59.5318 11.9622 59.6537 11.8522C59.7831 11.7322 59.8842 11.5847 59.9494 11.4207C60.03 11.206 60.0677 10.9775 60.0602 10.7483V10.4768L58.6906 10.6867C58.4943 10.7123 58.3087 10.7913 58.1541 10.915C58.0102 11.0344 57.9383 11.2132 57.9383 11.4515C57.9386 11.6334 58.0094 11.808 58.1357 11.9388C58.2679 12.0821 58.4654 12.1538 58.7281 12.1538Z" fill="#252526"/>
<path d="M68.6025 12.104C68.6025 12.3095 68.6067 12.513 68.615 12.7146C68.6234 12.9162 68.6356 13.0787 68.6517 13.202H67.0871C67.0657 13.1045 67.0512 13.0057 67.0438 12.9062C67.0316 12.7746 67.0255 12.6388 67.0255 12.4988C66.8674 12.7548 66.6436 12.9636 66.3773 13.1037C66.0534 13.2771 65.6899 13.3632 65.3226 13.3536C64.9111 13.3585 64.5031 13.2765 64.1255 13.1128C63.7718 12.9583 63.4545 12.7313 63.1941 12.4464C62.928 12.1512 62.7208 11.8079 62.5834 11.435C62.2896 10.6201 62.2876 9.72859 62.5776 8.91237C62.7099 8.54148 62.9114 8.19911 63.1716 7.90349C63.5213 7.53157 63.9624 7.2578 64.4509 7.10943C64.9394 6.96107 65.4583 6.9433 65.9558 7.0579C66.1291 7.09966 66.2969 7.16174 66.4556 7.24285C66.5799 7.30591 66.6942 7.38704 66.7947 7.48361C66.8714 7.55627 66.9361 7.64063 66.9863 7.73354V4.26953H68.6025V12.104ZM64.013 10.1545C64.013 10.6977 64.1549 11.1212 64.4387 11.425C64.5771 11.5693 64.7433 11.684 64.9272 11.7625C65.111 11.8409 65.3089 11.8813 65.5088 11.8813C65.7087 11.8813 65.9066 11.8409 66.0905 11.7625C66.2744 11.684 66.4405 11.5693 66.5789 11.425C66.8666 11.1206 67.0105 10.693 67.0105 10.142C67.0105 9.59106 66.8666 9.17452 66.5789 8.89238C66.4388 8.75293 66.2726 8.64246 66.0898 8.56728C65.907 8.4921 65.7111 8.45368 65.5134 8.45422C65.3158 8.45476 65.1201 8.49425 64.9377 8.57044C64.7553 8.64662 64.5897 8.758 64.4504 8.89821C64.1588 9.19312 64.013 9.61189 64.013 10.1545V10.1545Z" fill="#252526"/>
<path d="M69.4425 12.5645C69.441 12.4819 69.4561 12.3999 69.487 12.3233C69.518 12.2467 69.564 12.1772 69.6224 12.1188C69.6791 12.0592 69.7475 12.012 69.8234 11.9803C69.8993 11.9486 69.9809 11.9331 70.0631 11.9347C70.2302 11.9347 70.3904 12.001 70.5085 12.1192C70.6266 12.2373 70.693 12.3975 70.693 12.5645C70.6945 12.6467 70.679 12.7284 70.6473 12.8042C70.6156 12.8801 70.5684 12.9486 70.5088 13.0052C70.4505 13.0636 70.3809 13.1097 70.3043 13.1406C70.2278 13.1715 70.1457 13.1867 70.0631 13.1852C69.9814 13.1859 69.9004 13.1704 69.8247 13.1395C69.7491 13.1086 69.6803 13.0629 69.6225 13.0051C69.5647 12.9473 69.5191 12.8786 69.4881 12.8029C69.4572 12.7273 69.4417 12.6462 69.4425 12.5645Z" fill="#252526"/>
<path d="M71.5022 5.94782C71.5022 5.7103 71.5966 5.48251 71.7645 5.31455C71.9325 5.1466 72.1603 5.05225 72.3978 5.05225C72.6353 5.05225 72.8631 5.1466 73.031 5.31455C73.199 5.48251 73.2934 5.7103 73.2934 5.94782C73.2934 6.18535 73.199 6.41314 73.031 6.58109C72.8631 6.74905 72.6353 6.8434 72.3978 6.8434C72.1603 6.8434 71.9325 6.74905 71.7645 6.58109C71.5966 6.41314 71.5022 6.18535 71.5022 5.94782V5.94782ZM71.6447 13.1958V7.46656H73.1509V13.1949L71.6447 13.1958Z" fill="#252526"/>
<path d="M73.939 10.3243C73.939 8.6998 75.0778 7.3252 76.9631 7.3252C78.8484 7.3252 79.9997 8.69897 79.9997 10.3243C79.9997 11.9497 78.8609 13.3368 76.9639 13.3368C75.067 13.3368 73.939 11.9489 73.939 10.3243ZM78.4377 10.3243C78.4377 9.43459 77.9162 8.66398 76.9673 8.66398C76.0184 8.66398 75.501 9.43459 75.501 10.3243C75.501 11.2141 76.0225 11.9964 76.9598 11.9964C77.897 11.9964 78.4343 11.2257 78.4343 10.3243H78.4377Z" fill="#252526"/>
</svg>
