<svg width="20" height="20" viewBox="0 0 20 20" fill="none" xmlns="http://www.w3.org/2000/svg">
<path d="M9.68744 20C8.12783 20 6.60433 19.5306 5.31521 18.6527C4.02609 17.7749 3.03105 16.5294 2.45959 15.0782C2.31425 14.7091 2.15438 14.3268 2.06814 13.9334L1.98094 13.3133C1.23049 13.0091 0.701927 12.2988 0.521704 11.5954C0.302722 10.7388 0.0343242 9.47774 0.000895564 8.33293C-0.0247815 7.42357 0.503778 6.56945 1.31721 6.20755C1.88259 5.95562 2.64224 5.74488 3.58115 5.57773C4.16252 4.29097 4.83787 3.16748 5.55198 2.30124C6.81258 0.775156 8.2035 0 9.68744 0C11.1714 0 12.5618 0.775156 13.8214 2.30221C14.5288 3.15973 15.1983 4.2716 15.7768 5.54576C16.7157 5.70612 17.4826 5.91735 18.063 6.17557C18.4658 6.35368 18.8063 6.64795 19.0409 7.02072C19.2755 7.39348 19.3935 7.82778 19.3798 8.26801C19.342 9.5882 19.0039 11.0348 18.86 11.5954C18.6788 12.3042 18.1434 13.0202 17.3857 13.3201L17.2966 13.9329C17.2103 14.3249 17.0601 14.7081 16.9158 15.0753C16.3454 16.5276 15.3507 17.7742 14.0613 18.6527C12.7719 19.5312 11.2477 20.0007 9.68744 20V20Z" fill="white"/>
<path d="M9.63653 1.45996C13.0811 1.45996 15.8712 8.86076 15.8712 12.3054C15.8712 13.1241 15.7099 13.9349 15.3966 14.6914C15.0833 15.4478 14.624 16.1352 14.045 16.7141C13.4661 17.2931 12.7787 17.7523 12.0223 18.0657C11.2658 18.379 10.4551 18.5403 9.63629 18.5403C8.81751 18.5403 8.00674 18.379 7.25029 18.0657C6.49383 17.7523 5.8065 17.2931 5.22753 16.7141C4.64857 16.1352 4.18931 15.4478 3.87597 14.6914C3.56264 13.9349 3.40137 13.1241 3.40137 12.3054C3.40137 8.86076 6.1929 1.45996 9.63653 1.45996Z" fill="#FCFBFA"/>
<path d="M17.5425 7.43311L14.999 8.33035C14.999 8.33035 15.3929 9.52748 15.3963 9.53572C15.3997 9.54395 17.9296 9.20967 17.9296 9.20967L17.5425 7.43311Z" fill="#252526"/>
<path d="M1.73084 7.43311L4.27432 8.33035C4.27432 8.33035 3.88045 9.52748 3.87706 9.53572C3.87367 9.54395 1.34375 9.20967 1.34375 9.20967L1.73084 7.43311Z" fill="#252526"/>
<path d="M7.01952 7.22168C7.65854 7.23137 7.79807 7.76284 7.82132 7.88928C7.90187 8.32249 7.95494 8.76036 7.98023 9.20027C7.98257 9.32337 7.97136 9.44636 7.9468 9.56701C7.91483 9.25017 7.86977 8.94786 7.82132 8.68576C7.79807 8.55979 7.65854 8.02784 7.01952 8.01815C6.63194 8.01234 5.39412 8.05691 4.16113 8.2352C4.25028 7.95711 4.34669 7.67757 4.45182 7.399C5.30343 7.28886 6.16085 7.22965 7.01952 7.22168V7.22168Z" fill="#E0E0E0"/>
<path d="M15.8593 12.0286C13.6137 11.9128 11.6957 11.1973 11.2626 10.9371C10.9235 10.7753 10.4947 10.4337 10.3707 9.58057C10.2878 10.5229 10.4676 11.3818 11.3503 11.8057C11.4157 11.845 13.1099 12.6836 15.8433 12.827C15.8573 12.6555 15.8651 12.4826 15.8651 12.3072C15.8656 12.2156 15.8632 12.1231 15.8593 12.0286Z" fill="#E0E0E0"/>
<path d="M3.41994 12.0286C5.66547 11.9128 7.5835 11.1973 8.01661 10.9371C8.35575 10.7753 8.7845 10.4337 8.90853 9.58057C8.99137 10.5229 8.81163 11.3818 7.92892 11.8057C7.86352 11.845 6.16932 12.6836 3.43593 12.827C3.42188 12.6555 3.41412 12.4826 3.41412 12.3072C3.41364 12.2156 3.41606 12.1231 3.41994 12.0286Z" fill="#E0E0E0"/>
<path d="M12.2477 7.22168C11.6086 7.23137 11.4691 7.76284 11.4459 7.88928C11.3661 8.32238 11.3139 8.76009 11.2894 9.19978C11.287 9.32289 11.2982 9.44588 11.3228 9.56653C11.3548 9.24968 11.3998 8.94737 11.4483 8.68527C11.4715 8.55931 11.6111 8.02736 12.2501 8.01767C12.6377 8.01185 13.8755 8.05643 15.1085 8.23471C15.0193 7.95662 14.9229 7.67708 14.8178 7.39851C13.9654 7.28845 13.1071 7.2294 12.2477 7.22168V7.22168Z" fill="#E0E0E0"/>
<path d="M4.18337 6.54643C4.79768 5.06103 5.5302 3.77863 6.30875 2.83294C7.36538 1.55006 8.48645 0.899414 9.63756 0.899414C10.7887 0.899414 11.9078 1.54958 12.9659 2.83246C13.7454 3.77767 14.4803 5.06103 15.0913 6.54643L15.1213 6.61861L15.0438 6.60844C14.8282 6.57986 14.6518 6.55999 14.4367 6.53577L14.4106 6.53286L14.3999 6.50864C13.712 4.90067 12.5352 2.80097 11.0159 1.9231C10.5566 1.65761 10.0925 1.52293 9.63756 1.52293C9.18264 1.52293 8.71706 1.65761 8.25923 1.9231C6.74235 2.79952 5.56944 4.89195 4.87568 6.50864L4.86502 6.53286L4.83886 6.53577C4.62278 6.55902 4.44643 6.57986 4.23181 6.60844L4.1543 6.61861L4.18337 6.54643Z" fill="#56555C"/>
<path d="M15.932 11.2517C15.7634 11.2473 15.5929 11.2406 15.4243 11.2309L15.372 11.228L15.3652 11.1761C15.2155 9.99402 14.8735 8.60842 14.4026 7.28L14.3682 7.18311L14.4704 7.19667C14.6642 7.22283 14.8522 7.25093 15.0314 7.28145L15.0682 7.28775L15.0803 7.32312C15.5324 8.65106 15.8555 10.0211 15.9955 11.1815L16.0042 11.2536L15.932 11.2517Z" fill="#56555C"/>
<path d="M15.3754 8.2567C15.2843 7.94518 15.186 7.63318 15.0803 7.32312L15.0682 7.28775L15.0314 7.28145C14.8522 7.25093 14.6632 7.22283 14.4704 7.19667L14.3682 7.18311L14.4026 7.28C14.5072 7.57504 14.6046 7.87251 14.6957 8.16998C15.0227 8.2068 15.2078 8.23296 15.3754 8.2567Z" fill="#252526"/>
<path d="M3.32024 11.1546C3.45832 9.99187 3.7834 8.62372 4.23541 7.29626L4.24752 7.2609L4.28434 7.2546C4.4636 7.22456 4.65206 7.19598 4.84536 7.16982L4.94759 7.15625L4.91319 7.25314C4.4418 8.58302 4.10025 9.96619 3.95054 11.1493L3.94376 11.2011L3.89144 11.204C3.72284 11.2137 3.55231 11.2205 3.38419 11.2249H3.31152L3.32024 11.1546Z" fill="#56555C"/>
<path d="M4.28489 7.25411L4.24807 7.26041L4.23596 7.29578C4.13034 7.60632 4.03151 7.91929 3.94043 8.23129C4.25679 8.19108 4.34884 8.19593 4.61288 8.16783C4.7059 7.86213 4.80667 7.55594 4.91374 7.25314L4.94813 7.15625L4.84542 7.1703C4.65164 7.19549 4.46414 7.22359 4.28489 7.25411Z" fill="#252526"/>
<path d="M9.63738 19.1006C8.27261 19.1007 6.93941 18.69 5.81122 17.922C4.68303 17.1541 3.81206 16.0643 3.31162 14.7946C2.96837 13.9139 2.81022 12.9719 2.84701 12.0273V11.9847H2.88965C3.11154 11.9798 3.26318 11.9731 3.42257 11.9648L3.47102 11.9624V12.0108C3.43013 12.8738 3.57041 13.7358 3.88282 14.5413C4.25861 15.5082 4.87203 16.3648 5.66642 17.032C6.46081 17.6992 7.41054 18.1554 8.42785 18.3585C9.44517 18.5616 10.4973 18.505 11.4869 18.1939C12.4766 17.8829 13.3719 17.3275 14.0902 16.5789C14.6546 15.9939 15.0966 15.3021 15.3905 14.5442C15.7031 13.7386 15.8433 12.8764 15.8023 12.0133V11.9648L15.8507 11.9672C16.0712 11.9784 16.2233 11.9832 16.3837 11.9871H16.4263V12.0297C16.4627 12.9735 16.3046 13.9146 15.9617 14.7946C15.4622 16.0647 14.5916 17.1548 13.4636 17.9229C12.3355 18.691 11.0021 19.1014 9.63738 19.1006V19.1006Z" fill="#56555C"/>
<path d="M3.48842 12.8043C3.4664 12.5334 3.4609 12.2614 3.47195 11.9899V11.9414L3.4235 11.9438C3.26411 11.9521 3.11247 11.9584 2.89058 11.9637H2.84795V12.0063C2.83865 12.2789 2.8448 12.5518 2.86636 12.8236H2.88671C3.09164 12.8202 3.29173 12.8144 3.48164 12.8052L3.48842 12.8043Z" fill="#252526"/>
<path d="M16.4247 11.9847H16.382C16.2217 11.9808 16.0695 11.9765 15.8491 11.9648L15.8007 11.9624V12.0108C15.8117 12.2798 15.8065 12.5492 15.7852 12.8175L16.4072 12.8441C16.4288 12.5724 16.4349 12.2997 16.4256 12.0273L16.4247 11.9847Z" fill="#252526"/>
<path d="M16.7758 12.1441C15.4761 12.1486 14.1814 11.9818 12.9252 11.648C12.3844 11.5051 11.8576 11.3136 11.3512 11.0759L11.3386 11.0667C10.28 10.5594 10.2383 9.54106 10.3367 8.61378C10.3614 8.37978 10.2761 8.06923 10.0286 7.90499C9.91339 7.82809 9.77801 7.78704 9.63952 7.78704C9.50104 7.78704 9.36566 7.82809 9.25049 7.90499C9.00341 8.06923 8.91766 8.37832 8.94237 8.61184C9.03926 9.54009 8.99905 10.558 7.94048 11.0652L7.92788 11.071C7.42176 11.311 6.89492 11.5046 6.35383 11.6495C5.09765 11.9832 3.80299 12.15 2.50324 12.1456H2.49743C2.23452 12.1426 1.98002 12.0525 1.77375 11.8894C1.56749 11.7264 1.42109 11.4996 1.35746 11.2445C1.15835 10.4693 0.889948 9.29979 0.858942 8.20585C0.85214 7.99156 0.90928 7.78009 1.02308 7.59839C1.13688 7.41669 1.3022 7.27297 1.49796 7.18555C2.9601 6.53442 5.91877 6.29267 7.18083 6.31059C7.64495 6.31738 8.04997 6.48452 8.35325 6.79507C8.75688 6.60564 9.19613 6.50408 9.64195 6.49711C10.0867 6.50403 10.5249 6.60508 10.9277 6.79361C11.1424 6.57415 11.5173 6.31641 12.1002 6.30914C12.8574 6.29848 16.1155 6.43898 17.783 7.18119C17.9788 7.26784 18.1442 7.41097 18.258 7.59224C18.3719 7.7735 18.429 7.98464 18.422 8.19858C18.3906 9.29494 18.1226 10.4688 17.9235 11.2459C17.8597 11.5008 17.7133 11.7273 17.5072 11.8902C17.301 12.053 17.0467 12.143 16.784 12.1461L16.7758 12.1441ZM12.2552 7.26694C11.6423 7.27615 11.5164 7.79356 11.497 7.89676C11.4166 8.32805 11.3634 8.76396 11.3376 9.20193C11.3318 9.7019 11.511 10.0449 11.8705 10.2193C13.2077 10.8157 14.7619 11.1103 16.6213 11.1195C16.6913 11.12 16.7595 11.0971 16.8151 11.0546C16.8707 11.012 16.9106 10.9522 16.9284 10.8845C17.1052 10.1936 17.3436 9.16656 17.3707 8.22281C17.3721 8.1787 17.3603 8.13518 17.3369 8.09782C17.3134 8.06045 17.2793 8.03093 17.239 8.01303C15.9633 7.4462 13.2455 7.25144 12.2552 7.26694ZM2.04057 8.01497C2.00024 8.03287 1.96615 8.06239 1.94268 8.09975C1.91921 8.13712 1.90741 8.18064 1.90879 8.22474C1.93593 9.16656 2.17429 10.1951 2.35112 10.8864C2.36876 10.954 2.40838 11.0137 2.46373 11.0563C2.51908 11.0988 2.58701 11.1217 2.65682 11.1214C4.51768 11.1122 6.07284 10.8172 7.41095 10.2203C7.76898 10.0459 7.94775 9.70239 7.94387 9.20047C7.91809 8.76313 7.86469 8.32785 7.78399 7.89724C7.7651 7.79356 7.63865 7.27615 7.02579 7.26743C6.44443 7.25774 3.47703 7.37498 2.04057 8.01497Z" fill="#252526"/>
</svg>
