<svg width="86" height="20" viewBox="0 0 86 20" fill="none" xmlns="http://www.w3.org/2000/svg">
<g filter="url(#filter0_ii_656_489)">
<path d="M0 6.4C0 1.6 1.6 0 6.4 0H13.6C18.4 0 20 1.6 20 6.4V13.6C20 18.4 18.4 20 13.6 20H6.4C1.6 20 0 18.4 0 13.6V6.4Z" fill="url(#paint0_linear_656_489)"/>
</g>
<mask id="mask0_656_489" style="mask-type:alpha" maskUnits="userSpaceOnUse" x="0" y="0" width="20" height="20">
<path d="M0 6.4C0 1.6 1.6 0 6.4 0H13.6C18.4 0 20 1.6 20 6.4V13.6C20 18.4 18.4 20 13.6 20H6.4C1.6 20 0 18.4 0 13.6V6.4Z" fill="url(#paint1_linear_656_489)"/>
</mask>
<g mask="url(#mask0_656_489)">
</g>
<g filter="url(#filter1_d_656_489)">
<rect x="10.2222" y="12.7778" width="5.75" height="1.27778" rx="0.638889" fill="#441800"/>
<path d="M5.11084 7.18939C5.11084 6.56589 5.79918 6.18803 6.3252 6.52278L11.0911 9.5556C11.579 9.8661 11.579 10.5783 11.0911 10.8888L6.3252 13.9217C5.79918 14.2564 5.11084 13.8785 5.11084 13.2551V7.18939Z" fill="#441800"/>
</g>
<path d="M29.4731 9.25405L27.9684 8.96711C27.1496 8.80614 26.7366 8.39322 26.7366 7.73534C26.7366 7.39941 26.8836 7.09846 27.1706 6.82551C27.4575 6.55956 27.8774 6.42659 28.4443 6.42659C29.5781 6.42659 30.215 6.8885 30.348 7.80533H32.3286C32.2306 6.84651 31.8387 6.11165 31.1598 5.60075C30.4809 5.08984 29.5711 4.83789 28.4443 4.83789C27.3245 4.83789 26.4357 5.09684 25.7708 5.61474C25.106 6.13964 24.777 6.82551 24.777 7.67235C24.777 8.5052 25.029 9.14208 25.5329 9.57599C26.0368 10.0099 26.7506 10.3109 27.6675 10.4858L29.0322 10.7448C29.5781 10.8498 29.977 11.0037 30.229 11.2067C30.4809 11.4096 30.6069 11.7176 30.6069 12.1305C30.6069 12.5294 30.4249 12.8654 30.068 13.1313C29.7111 13.4043 29.2212 13.5372 28.5983 13.5372C27.4155 13.5372 26.7226 12.9634 26.5337 11.8156H24.5601C24.637 12.8584 25.022 13.6702 25.7288 14.2511C26.4287 14.832 27.3805 15.1259 28.5843 15.1259C29.7671 15.1259 30.7329 14.86 31.4817 14.3351C32.2306 13.8102 32.6015 13.0823 32.6015 12.1445C32.6015 11.3257 32.3566 10.6958 31.8667 10.2549C31.3698 9.81395 30.5719 9.48501 29.4731 9.25405Z" fill="black"/>
<path d="M37.0877 13.6072C36.5208 13.6072 36.0729 13.4113 35.7299 13.0123C35.387 12.6204 35.219 12.0465 35.219 11.2907C35.219 10.5418 35.387 9.96792 35.7229 9.56899C36.0519 9.17007 36.4998 8.96711 37.0667 8.96711C37.8715 8.96011 38.3754 9.32404 38.5784 10.0519H40.2511C39.9152 8.33723 38.8514 7.47639 37.0527 7.47639C36.0939 7.47639 35.254 7.79133 34.5332 8.42821C33.8123 9.06509 33.4554 10.0239 33.4554 11.2907C33.4554 11.9555 33.5674 12.5434 33.7843 13.0473C34.0013 13.5582 34.2812 13.9502 34.6382 14.2371C34.9881 14.5241 35.366 14.741 35.7789 14.881C36.1919 15.028 36.6188 15.0979 37.0667 15.0979C37.4236 15.0979 37.7596 15.056 38.0885 14.979C38.4174 14.902 38.7324 14.762 39.0473 14.573C39.3553 14.3841 39.6212 14.1041 39.8452 13.7472C40.0691 13.3903 40.2301 12.9564 40.3211 12.4454H38.6624C38.4244 13.2223 37.8995 13.6072 37.0877 13.6072Z" fill="black"/>
<path d="M45.6681 7.47639C45.0382 7.47639 44.5273 7.63736 44.1424 7.9523C43.7504 8.27424 43.4915 8.69416 43.3655 9.21206V7.54638H41.5318V15H43.3655V10.9127C43.5685 9.71597 44.3803 9.12108 45.815 9.12108C45.948 9.12108 46.095 9.12808 46.2699 9.13508V7.51838C46.095 7.49039 45.899 7.47639 45.6681 7.47639Z" fill="black"/>
<path d="M47.3967 4.83789V6.28662H49.2304V4.83789H47.3967ZM47.3967 7.54638V15H49.2304V7.54638H47.3967Z" fill="black"/>
<path d="M54.7663 7.47639C54.2554 7.47639 53.8145 7.58837 53.4296 7.81233C53.0447 8.03628 52.7647 8.30223 52.6037 8.61018V7.54638H50.7701V17.7225H52.6037V13.8942C52.6667 14.1461 52.8837 14.4121 53.2546 14.685C53.6256 14.958 54.1155 15.0979 54.7243 15.0979C55.0953 15.0979 55.4732 15.021 55.8441 14.874C56.2151 14.727 56.565 14.5101 56.9079 14.2231C57.2509 13.9362 57.5238 13.5372 57.7338 13.0193C57.9437 12.5084 58.0487 11.9275 58.0487 11.2767C58.0487 10.6328 57.9437 10.0519 57.7338 9.541C57.5238 9.0301 57.2509 8.63117 56.9219 8.34423C56.586 8.05728 56.2361 7.84032 55.8651 7.69335C55.4942 7.54638 55.1303 7.47639 54.7663 7.47639ZM54.3534 13.6072C53.8145 13.6072 53.3736 13.4043 53.0307 13.0053C52.6877 12.6064 52.5128 12.0255 52.5128 11.2697C52.5128 10.5208 52.6877 9.94692 53.0307 9.555C53.3736 9.16307 53.8145 8.96711 54.3534 8.96711C54.8923 8.96711 55.3472 9.16307 55.7182 9.548C56.0891 9.93293 56.2711 10.5138 56.2711 11.2767C56.2711 12.0465 56.0891 12.6274 55.7252 13.0193C55.3542 13.4113 54.8993 13.6072 54.3534 13.6072Z" fill="black"/>
<path d="M62.2339 13.6492C61.709 13.6492 61.4431 13.4043 61.4501 12.9214V8.9951H62.9408V7.54638H61.4501V5.68473H59.6164V7.54638H58.4126V8.9951H59.6164V13.1243C59.6164 13.8802 59.7984 14.3981 60.1693 14.671C60.5402 14.944 61.0581 15.084 61.723 15.084C62.2059 15.0909 62.6398 15.021 63.0108 14.888V13.5512C62.7098 13.6142 62.4509 13.6492 62.2339 13.6492Z" fill="black"/>
<path d="M72.529 9.51301L76.4552 4.96387H74.2576L69.9605 9.88393V4.96387H68.0568V15H69.9605V12.4664L71.3812 10.8148V10.8428L74.7196 15H76.8402L72.529 9.51301Z" fill="black"/>
<path d="M77.897 4.83789V6.28662H79.7306V4.83789H77.897ZM77.897 7.54638V15H79.7306V7.54638H77.897Z" fill="black"/>
<path d="M84.5177 13.6492C83.9928 13.6492 83.7269 13.4043 83.7339 12.9214V8.9951H85.2246V7.54638H83.7339V5.68473H81.9002V7.54638H80.6964V8.9951H81.9002V13.1243C81.9002 13.8802 82.0822 14.3981 82.4531 14.671C82.824 14.944 83.3419 15.084 84.0068 15.084C84.4897 15.0909 84.9236 15.021 85.2946 14.888V13.5512C84.9936 13.6142 84.7347 13.6492 84.5177 13.6492Z" fill="black"/>
<defs>
<filter id="filter0_ii_656_489" x="0" y="0" width="20" height="20" filterUnits="userSpaceOnUse" color-interpolation-filters="sRGB">
<feFlood flood-opacity="0" result="BackgroundImageFix"/>
<feBlend mode="normal" in="SourceGraphic" in2="BackgroundImageFix" result="shape"/>
<feColorMatrix in="SourceAlpha" type="matrix" values="0 0 0 0 0 0 0 0 0 0 0 0 0 0 0 0 0 0 127 0" result="hardAlpha"/>
<feOffset/>
<feGaussianBlur stdDeviation="0.408887"/>
<feComposite in2="hardAlpha" operator="arithmetic" k2="-1" k3="1"/>
<feColorMatrix type="matrix" values="0 0 0 0 1 0 0 0 0 1 0 0 0 0 1 0 0 0 0.25 0"/>
<feBlend mode="normal" in2="shape" result="effect1_innerShadow_656_489"/>
<feColorMatrix in="SourceAlpha" type="matrix" values="0 0 0 0 0 0 0 0 0 0 0 0 0 0 0 0 0 0 127 0" result="hardAlpha"/>
<feOffset/>
<feGaussianBlur stdDeviation="0.204443"/>
<feComposite in2="hardAlpha" operator="arithmetic" k2="-1" k3="1"/>
<feColorMatrix type="matrix" values="0 0 0 0 1 0 0 0 0 1 0 0 0 0 1 0 0 0 0.25 0"/>
<feBlend mode="normal" in2="effect1_innerShadow_656_489" result="effect2_innerShadow_656_489"/>
</filter>
<filter id="filter1_d_656_489" x="4.08799" y="5.88653" width="12.907" height="9.70341" filterUnits="userSpaceOnUse" color-interpolation-filters="sRGB">
<feFlood flood-opacity="0" result="BackgroundImageFix"/>
<feColorMatrix in="SourceAlpha" type="matrix" values="0 0 0 0 0 0 0 0 0 0 0 0 0 0 0 0 0 0 127 0" result="hardAlpha"/>
<feOffset dy="0.511424"/>
<feGaussianBlur stdDeviation="0.511424"/>
<feComposite in2="hardAlpha" operator="out"/>
<feColorMatrix type="matrix" values="0 0 0 0 1 0 0 0 0 1 0 0 0 0 1 0 0 0 0.15 0"/>
<feBlend mode="normal" in2="BackgroundImageFix" result="effect1_dropShadow_656_489"/>
<feBlend mode="normal" in="SourceGraphic" in2="effect1_dropShadow_656_489" result="shape"/>
</filter>
<linearGradient id="paint0_linear_656_489" x1="10" y1="0" x2="10" y2="20" gradientUnits="userSpaceOnUse">
<stop stop-color="#FFE86F"/>
<stop offset="0.333333" stop-color="#FED533"/>
<stop offset="0.713542" stop-color="#FFB800"/>
<stop offset="1" stop-color="#FFA800"/>
</linearGradient>
<linearGradient id="paint1_linear_656_489" x1="10" y1="0" x2="10" y2="20" gradientUnits="userSpaceOnUse">
<stop stop-color="#FFE86F"/>
<stop offset="0.333333" stop-color="#FED533"/>
<stop offset="0.713542" stop-color="#FFB800"/>
<stop offset="1" stop-color="#FFA800"/>
</linearGradient>
</defs>
</svg>
