<svg width="73" height="20" viewBox="0 0 73 20" fill="none" xmlns="http://www.w3.org/2000/svg">
<path d="M36.0814 6.05631C33.2825 6.05631 31.2645 7.88165 31.2645 10.6197C31.2645 13.3577 33.5336 15.183 36.335 15.183C38.0257 15.183 39.5166 14.5137 40.4392 13.3856L38.4999 12.265C37.9878 12.8253 37.2095 13.1523 36.335 13.1523C35.1205 13.1523 34.0887 12.5185 33.7058 11.5044H40.8095C40.8652 11.2205 40.8983 10.9264 40.8983 10.6171C40.8983 7.88165 38.8828 6.05631 36.0814 6.05631ZM33.6855 9.73234C34.0025 8.72081 34.8695 8.08446 36.0814 8.08446C37.2956 8.08446 38.1627 8.72081 38.4771 9.73234H33.6855ZM33.1126 3.2676L26.0876 15.4366L19.0601 3.2676H21.6941L26.0851 10.8732L30.476 3.2676H33.1126ZM9.36803 2L18.7356 18.2252H0.000488281L9.36803 2ZM51.0897 10.6197C51.0897 12.1408 52.0835 13.1549 53.6249 13.1549C54.6695 13.1549 55.4528 12.6808 55.8559 11.9075L57.8029 13.0306C56.9966 14.3743 55.4857 15.183 53.6249 15.183C50.8234 15.183 48.8081 13.3577 48.8081 10.6197C48.8081 7.88165 50.8261 6.05631 53.6249 6.05631C55.4857 6.05631 56.9942 6.86505 57.8029 8.20868L55.8559 9.33178C55.4528 8.55855 54.6695 8.08446 53.6249 8.08446C52.0861 8.08446 51.0897 9.09854 51.0897 10.6197ZM72 3.2676V14.9295H69.7184V3.2676H72ZM63.3803 6.05631C60.5815 6.05631 58.5635 7.88165 58.5635 10.6197C58.5635 13.3577 60.8351 15.183 63.6339 15.183C65.3247 15.183 66.8156 14.5137 67.7382 13.3856L65.7988 12.265C65.2868 12.8253 64.5085 13.1523 63.6339 13.1523C62.4195 13.1523 61.3877 12.5185 61.0047 11.5044H68.1085C68.1641 11.2205 68.1972 10.9264 68.1972 10.6171C68.1972 7.88165 66.1817 6.05631 63.3803 6.05631ZM60.9845 9.73234C61.3015 8.72081 62.166 8.08446 63.3803 8.08446C64.5946 8.08446 65.4617 8.72081 65.7761 9.73234H60.9845ZM48.0475 6.30983V8.76642C47.794 8.69291 47.5252 8.64221 47.2362 8.64221C45.7633 8.64221 44.701 9.65628 44.701 11.1774V14.9295H42.4194V6.30983H44.701V8.64221C44.701 7.35433 46.1992 6.30983 48.0475 6.30983Z" fill="black"/>
</svg>
