<svg width="63" height="14" viewBox="0 0 63 14" fill="none" xmlns="http://www.w3.org/2000/svg">
<g clip-path="url(#clip0_628_515)">
<path d="M31.133 3.5C28.718 3.5 26.9767 5.075 26.9767 7.4375C26.9767 9.8 28.9346 11.375 31.3518 11.375C32.8107 11.375 34.0971 10.7975 34.8932 9.82407L33.2198 8.85718C32.778 9.34063 32.1064 9.62282 31.3518 9.62282C30.3039 9.62282 29.4136 9.07593 29.0832 8.20093H35.2127C35.2607 7.95593 35.2893 7.70218 35.2893 7.43532C35.2893 5.075 33.5502 3.5 31.133 3.5ZM29.0657 6.67187C29.3392 5.79907 30.0873 5.25 31.133 5.25C32.1807 5.25 32.9289 5.79907 33.2002 6.67187H29.0657ZM28.5714 1.09375L22.5098 11.5938L16.4461 1.09375H18.7189L22.5077 7.65625L26.2964 1.09375H28.5714ZM8.0833 0L16.1661 14H0.000488281L8.0833 0ZM44.083 7.4375C44.083 8.75 44.9405 9.625 46.2705 9.625C47.1718 9.625 47.8477 9.21593 48.1955 8.54875L49.8755 9.51782C49.1798 10.6772 47.8761 11.375 46.2705 11.375C43.8532 11.375 42.1143 9.8 42.1143 7.4375C42.1143 5.075 43.8555 3.5 46.2705 3.5C47.8761 3.5 49.1777 4.19782 49.8755 5.35718L48.1955 6.32625C47.8477 5.65907 47.1718 5.25 46.2705 5.25C44.9427 5.25 44.083 6.125 44.083 7.4375ZM62.1255 1.09375V11.1563H60.1568V1.09375H62.1255ZM54.688 3.5C52.273 3.5 50.5318 5.075 50.5318 7.4375C50.5318 9.8 52.4918 11.375 54.9068 11.375C56.3657 11.375 57.6521 10.7975 58.4482 9.82407L56.7748 8.85718C56.333 9.34063 55.6614 9.62282 54.9068 9.62282C53.8589 9.62282 52.9686 9.07593 52.6382 8.20093H58.7677C58.8157 7.95593 58.8442 7.70218 58.8442 7.43532C58.8442 5.075 57.1052 3.5 54.688 3.5ZM52.6207 6.67187C52.8943 5.79907 53.6402 5.25 54.688 5.25C55.7357 5.25 56.4839 5.79907 56.7552 6.67187H52.6207ZM41.458 3.71875V5.83843C41.2393 5.775 41.0073 5.73125 40.758 5.73125C39.4871 5.73125 38.5705 6.60625 38.5705 7.91875V11.1563H36.6018V3.71875H38.5705V5.73125C38.5705 4.62 39.8632 3.71875 41.458 3.71875Z" fill="white"/>
</g>
<defs>
<clipPath id="clip0_628_515">
<rect width="62.132" height="14" fill="white" transform="translate(0.000488281)"/>
</clipPath>
</defs>
</svg>
